<?xml version="1.0" encoding="utf-8" standalone="no"?>
<!DOCTYPE svg PUBLIC "-//W3C//DTD SVG 1.1//EN"
  "http://www.w3.org/Graphics/SVG/1.1/DTD/svg11.dtd">
<!-- Created with matplotlib (https://matplotlib.org/) -->
<svg height="136.8pt" version="1.1" viewBox="0 0 432 136.8" width="432pt" xmlns="http://www.w3.org/2000/svg" xmlns:xlink="http://www.w3.org/1999/xlink">
 <metadata>
  <rdf:RDF xmlns:cc="http://creativecommons.org/ns#" xmlns:dc="http://purl.org/dc/elements/1.1/" xmlns:rdf="http://www.w3.org/1999/02/22-rdf-syntax-ns#">
   <cc:Work>
    <dc:type rdf:resource="http://purl.org/dc/dcmitype/StillImage"/>
    <dc:date>2021-01-05T09:21:15.366105</dc:date>
    <dc:format>image/svg+xml</dc:format>
    <dc:creator>
     <cc:Agent>
      <dc:title>Matplotlib v3.3.3, https://matplotlib.org/</dc:title>
     </cc:Agent>
    </dc:creator>
   </cc:Work>
  </rdf:RDF>
 </metadata>
 <defs>
  <style type="text/css">*{stroke-linecap:butt;stroke-linejoin:round;}</style>
 </defs>
 <g id="figure_1">
  <g id="patch_1">
   <path d="M 0 136.8 
L 432 136.8 
L 432 0 
L 0 0 
z
" style="fill:#ffffff;"/>
  </g>
  <g id="axes_1">
   <g id="patch_2">
    <path d="M 38.88 103.968 
L 135 103.968 
L 135 2.736 
L 38.88 2.736 
z
" style="fill:#ffffff;"/>
   </g>
   <g id="line2d_1">
    <path clip-path="url(#peb016eb878)" d="M 66.550909 103.968 
L 66.550909 2.736 
" style="fill:none;stroke:#cccccc;stroke-linecap:square;stroke-width:1.5;"/>
   </g>
   <g id="matplotlib.axis_1">
    <g id="xtick_1">
     <g id="line2d_2">
      <defs>
       <path d="M 0 0 
L 0 3.5 
" id="m79d4ab34e0" style="stroke:#000000;stroke-width:0.8;"/>
      </defs>
      <g>
       <use style="stroke:#000000;stroke-width:0.8;" x="43.249091" xlink:href="#m79d4ab34e0" y="103.968"/>
      </g>
     </g>
     <g id="text_1">
      <!-- 0 -->
      <g transform="translate(40.067841 118.566437)scale(0.1 -0.1)">
       <defs>
        <path d="M 31.78125 66.40625 
Q 24.171875 66.40625 20.328125 58.90625 
Q 16.5 51.421875 16.5 36.375 
Q 16.5 21.390625 20.328125 13.890625 
Q 24.171875 6.390625 31.78125 6.390625 
Q 39.453125 6.390625 43.28125 13.890625 
Q 47.125 21.390625 47.125 36.375 
Q 47.125 51.421875 43.28125 58.90625 
Q 39.453125 66.40625 31.78125 66.40625 
z
M 31.78125 74.21875 
Q 44.046875 74.21875 50.515625 64.515625 
Q 56.984375 54.828125 56.984375 36.375 
Q 56.984375 17.96875 50.515625 8.265625 
Q 44.046875 -1.421875 31.78125 -1.421875 
Q 19.53125 -1.421875 13.0625 8.265625 
Q 6.59375 17.96875 6.59375 36.375 
Q 6.59375 54.828125 13.0625 64.515625 
Q 19.53125 74.21875 31.78125 74.21875 
z
" id="DejaVuSans-48"/>
       </defs>
       <use xlink:href="#DejaVuSans-48"/>
      </g>
     </g>
    </g>
    <g id="xtick_2">
     <g id="line2d_3">
      <g>
       <use style="stroke:#000000;stroke-width:0.8;" x="101.503636" xlink:href="#m79d4ab34e0" y="103.968"/>
      </g>
     </g>
     <g id="text_2">
      <!-- 10 -->
      <g transform="translate(95.141136 118.566437)scale(0.1 -0.1)">
       <defs>
        <path d="M 12.40625 8.296875 
L 28.515625 8.296875 
L 28.515625 63.921875 
L 10.984375 60.40625 
L 10.984375 69.390625 
L 28.421875 72.90625 
L 38.28125 72.90625 
L 38.28125 8.296875 
L 54.390625 8.296875 
L 54.390625 0 
L 12.40625 0 
z
" id="DejaVuSans-49"/>
       </defs>
       <use xlink:href="#DejaVuSans-49"/>
       <use x="63.623047" xlink:href="#DejaVuSans-48"/>
      </g>
     </g>
    </g>
    <g id="xtick_3">
     <g id="line2d_4">
      <defs>
       <path d="M 0 0 
L 0 2 
" id="mf6fa15b294" style="stroke:#000000;stroke-width:0.6;"/>
      </defs>
      <g>
       <use style="stroke:#000000;stroke-width:0.6;" x="54.9" xlink:href="#mf6fa15b294" y="103.968"/>
      </g>
     </g>
    </g>
    <g id="xtick_4">
     <g id="line2d_5">
      <g>
       <use style="stroke:#000000;stroke-width:0.6;" x="66.550909" xlink:href="#mf6fa15b294" y="103.968"/>
      </g>
     </g>
    </g>
    <g id="xtick_5">
     <g id="line2d_6">
      <g>
       <use style="stroke:#000000;stroke-width:0.6;" x="78.201818" xlink:href="#mf6fa15b294" y="103.968"/>
      </g>
     </g>
    </g>
    <g id="xtick_6">
     <g id="line2d_7">
      <g>
       <use style="stroke:#000000;stroke-width:0.6;" x="89.852727" xlink:href="#mf6fa15b294" y="103.968"/>
      </g>
     </g>
    </g>
    <g id="xtick_7">
     <g id="line2d_8">
      <g>
       <use style="stroke:#000000;stroke-width:0.6;" x="113.154545" xlink:href="#mf6fa15b294" y="103.968"/>
      </g>
     </g>
    </g>
    <g id="xtick_8">
     <g id="line2d_9">
      <g>
       <use style="stroke:#000000;stroke-width:0.6;" x="124.805455" xlink:href="#mf6fa15b294" y="103.968"/>
      </g>
     </g>
    </g>
    <g id="text_3">
     <!-- [K$^+$]$_o$ (mM) -->
     <g transform="translate(58.24 132.666438)scale(0.1 -0.1)">
      <defs>
       <path d="M 8.59375 75.984375 
L 29.296875 75.984375 
L 29.296875 69 
L 17.578125 69 
L 17.578125 -6.203125 
L 29.296875 -6.203125 
L 29.296875 -13.1875 
L 8.59375 -13.1875 
z
" id="DejaVuSans-91"/>
       <path d="M 9.8125 72.90625 
L 19.671875 72.90625 
L 19.671875 42.09375 
L 52.390625 72.90625 
L 65.09375 72.90625 
L 28.90625 38.921875 
L 67.671875 0 
L 54.6875 0 
L 19.671875 35.109375 
L 19.671875 0 
L 9.8125 0 
z
" id="DejaVuSans-75"/>
       <path d="M 46 62.703125 
L 46 35.5 
L 73.1875 35.5 
L 73.1875 27.203125 
L 46 27.203125 
L 46 0 
L 37.796875 0 
L 37.796875 27.203125 
L 10.59375 27.203125 
L 10.59375 35.5 
L 37.796875 35.5 
L 37.796875 62.703125 
z
" id="DejaVuSans-43"/>
       <path d="M 30.421875 75.984375 
L 30.421875 -13.1875 
L 9.71875 -13.1875 
L 9.71875 -6.203125 
L 21.390625 -6.203125 
L 21.390625 69 
L 9.71875 69 
L 9.71875 75.984375 
z
" id="DejaVuSans-93"/>
       <path d="M 25.390625 -1.421875 
Q 15.765625 -1.421875 10.171875 4.515625 
Q 4.59375 10.453125 4.59375 20.703125 
Q 4.59375 26.65625 6.515625 32.828125 
Q 8.453125 39.015625 11.53125 43.21875 
Q 16.359375 49.75 22.3125 52.875 
Q 28.265625 56 35.796875 56 
Q 45.125 56 50.859375 50.1875 
Q 56.59375 44.390625 56.59375 35.015625 
Q 56.59375 28.515625 54.6875 22.0625 
Q 52.78125 15.625 49.703125 11.375 
Q 44.921875 4.828125 38.96875 1.703125 
Q 33.015625 -1.421875 25.390625 -1.421875 
z
M 13.921875 21 
Q 13.921875 13.578125 17.015625 9.890625 
Q 20.125 6.203125 26.421875 6.203125 
Q 35.453125 6.203125 41.375 14.078125 
Q 47.3125 21.96875 47.3125 34.078125 
Q 47.3125 41.15625 44.140625 44.765625 
Q 40.96875 48.390625 34.8125 48.390625 
Q 29.734375 48.390625 25.78125 46.015625 
Q 21.828125 43.65625 18.703125 38.8125 
Q 16.40625 35.203125 15.15625 30.5625 
Q 13.921875 25.921875 13.921875 21 
z
" id="DejaVuSans-Oblique-111"/>
       <path id="DejaVuSans-32"/>
       <path d="M 31 75.875 
Q 24.46875 64.65625 21.28125 53.65625 
Q 18.109375 42.671875 18.109375 31.390625 
Q 18.109375 20.125 21.3125 9.0625 
Q 24.515625 -2 31 -13.1875 
L 23.1875 -13.1875 
Q 15.875 -1.703125 12.234375 9.375 
Q 8.59375 20.453125 8.59375 31.390625 
Q 8.59375 42.28125 12.203125 53.3125 
Q 15.828125 64.359375 23.1875 75.875 
z
" id="DejaVuSans-40"/>
       <path d="M 52 44.1875 
Q 55.375 50.25 60.0625 53.125 
Q 64.75 56 71.09375 56 
Q 79.640625 56 84.28125 50.015625 
Q 88.921875 44.046875 88.921875 33.015625 
L 88.921875 0 
L 79.890625 0 
L 79.890625 32.71875 
Q 79.890625 40.578125 77.09375 44.375 
Q 74.3125 48.1875 68.609375 48.1875 
Q 61.625 48.1875 57.5625 43.546875 
Q 53.515625 38.921875 53.515625 30.90625 
L 53.515625 0 
L 44.484375 0 
L 44.484375 32.71875 
Q 44.484375 40.625 41.703125 44.40625 
Q 38.921875 48.1875 33.109375 48.1875 
Q 26.21875 48.1875 22.15625 43.53125 
Q 18.109375 38.875 18.109375 30.90625 
L 18.109375 0 
L 9.078125 0 
L 9.078125 54.6875 
L 18.109375 54.6875 
L 18.109375 46.1875 
Q 21.1875 51.21875 25.484375 53.609375 
Q 29.78125 56 35.6875 56 
Q 41.65625 56 45.828125 52.96875 
Q 50 49.953125 52 44.1875 
z
" id="DejaVuSans-109"/>
       <path d="M 9.8125 72.90625 
L 24.515625 72.90625 
L 43.109375 23.296875 
L 61.8125 72.90625 
L 76.515625 72.90625 
L 76.515625 0 
L 66.890625 0 
L 66.890625 64.015625 
L 48.09375 14.015625 
L 38.1875 14.015625 
L 19.390625 64.015625 
L 19.390625 0 
L 9.8125 0 
z
" id="DejaVuSans-77"/>
       <path d="M 8.015625 75.875 
L 15.828125 75.875 
Q 23.140625 64.359375 26.78125 53.3125 
Q 30.421875 42.28125 30.421875 31.390625 
Q 30.421875 20.453125 26.78125 9.375 
Q 23.140625 -1.703125 15.828125 -13.1875 
L 8.015625 -13.1875 
Q 14.5 -2 17.703125 9.0625 
Q 20.90625 20.125 20.90625 31.390625 
Q 20.90625 42.671875 17.703125 53.65625 
Q 14.5 64.65625 8.015625 75.875 
z
" id="DejaVuSans-41"/>
      </defs>
      <use transform="translate(0 0.826562)" xlink:href="#DejaVuSans-91"/>
      <use transform="translate(39.013672 0.826562)" xlink:href="#DejaVuSans-75"/>
      <use transform="translate(119.18457 39.107812)scale(0.7)" xlink:href="#DejaVuSans-43"/>
      <use transform="translate(194.208984 0.826562)" xlink:href="#DejaVuSans-93"/>
      <use transform="translate(234.179688 -15.579688)scale(0.7)" xlink:href="#DejaVuSans-Oblique-111"/>
      <use transform="translate(279.741211 0.826562)" xlink:href="#DejaVuSans-32"/>
      <use transform="translate(311.52832 0.826562)" xlink:href="#DejaVuSans-40"/>
      <use transform="translate(350.541992 0.826562)" xlink:href="#DejaVuSans-109"/>
      <use transform="translate(447.954102 0.826562)" xlink:href="#DejaVuSans-77"/>
      <use transform="translate(534.233398 0.826562)" xlink:href="#DejaVuSans-41"/>
     </g>
    </g>
   </g>
   <g id="matplotlib.axis_2">
    <g id="ytick_1">
     <g id="line2d_10">
      <defs>
       <path d="M 0 0 
L -3.5 0 
" id="m0d2c354f92" style="stroke:#000000;stroke-width:0.8;"/>
      </defs>
      <g>
       <use style="stroke:#000000;stroke-width:0.8;" x="38.88" xlink:href="#m0d2c354f92" y="103.968"/>
      </g>
     </g>
     <g id="text_4">
      <!-- 0.0 -->
      <g transform="translate(15.976875 107.767219)scale(0.1 -0.1)">
       <defs>
        <path d="M 10.6875 12.40625 
L 21 12.40625 
L 21 0 
L 10.6875 0 
z
" id="DejaVuSans-46"/>
       </defs>
       <use xlink:href="#DejaVuSans-48"/>
       <use x="63.623047" xlink:href="#DejaVuSans-46"/>
       <use x="95.410156" xlink:href="#DejaVuSans-48"/>
      </g>
     </g>
    </g>
    <g id="ytick_2">
     <g id="line2d_11">
      <g>
       <use style="stroke:#000000;stroke-width:0.8;" x="38.88" xlink:href="#m0d2c354f92" y="67.813714"/>
      </g>
     </g>
     <g id="text_5">
      <!-- 0.1 -->
      <g transform="translate(15.976875 71.612933)scale(0.1 -0.1)">
       <use xlink:href="#DejaVuSans-48"/>
       <use x="63.623047" xlink:href="#DejaVuSans-46"/>
       <use x="95.410156" xlink:href="#DejaVuSans-49"/>
      </g>
     </g>
    </g>
    <g id="ytick_3">
     <g id="line2d_12">
      <g>
       <use style="stroke:#000000;stroke-width:0.8;" x="38.88" xlink:href="#m0d2c354f92" y="31.659429"/>
      </g>
     </g>
     <g id="text_6">
      <!-- 0.2 -->
      <g transform="translate(15.976875 35.458647)scale(0.1 -0.1)">
       <defs>
        <path d="M 19.1875 8.296875 
L 53.609375 8.296875 
L 53.609375 0 
L 7.328125 0 
L 7.328125 8.296875 
Q 12.9375 14.109375 22.625 23.890625 
Q 32.328125 33.6875 34.8125 36.53125 
Q 39.546875 41.84375 41.421875 45.53125 
Q 43.3125 49.21875 43.3125 52.78125 
Q 43.3125 58.59375 39.234375 62.25 
Q 35.15625 65.921875 28.609375 65.921875 
Q 23.96875 65.921875 18.8125 64.3125 
Q 13.671875 62.703125 7.8125 59.421875 
L 7.8125 69.390625 
Q 13.765625 71.78125 18.9375 73 
Q 24.125 74.21875 28.421875 74.21875 
Q 39.75 74.21875 46.484375 68.546875 
Q 53.21875 62.890625 53.21875 53.421875 
Q 53.21875 48.921875 51.53125 44.890625 
Q 49.859375 40.875 45.40625 35.40625 
Q 44.1875 33.984375 37.640625 27.21875 
Q 31.109375 20.453125 19.1875 8.296875 
z
" id="DejaVuSans-50"/>
       </defs>
       <use xlink:href="#DejaVuSans-48"/>
       <use x="63.623047" xlink:href="#DejaVuSans-46"/>
       <use x="95.410156" xlink:href="#DejaVuSans-50"/>
      </g>
     </g>
    </g>
    <g id="ytick_4">
     <g id="line2d_13">
      <defs>
       <path d="M 0 0 
L -2 0 
" id="md02fd46b42" style="stroke:#000000;stroke-width:0.6;"/>
      </defs>
      <g>
       <use style="stroke:#000000;stroke-width:0.6;" x="38.88" xlink:href="#md02fd46b42" y="96.737143"/>
      </g>
     </g>
    </g>
    <g id="ytick_5">
     <g id="line2d_14">
      <g>
       <use style="stroke:#000000;stroke-width:0.6;" x="38.88" xlink:href="#md02fd46b42" y="89.506286"/>
      </g>
     </g>
    </g>
    <g id="ytick_6">
     <g id="line2d_15">
      <g>
       <use style="stroke:#000000;stroke-width:0.6;" x="38.88" xlink:href="#md02fd46b42" y="82.275429"/>
      </g>
     </g>
    </g>
    <g id="ytick_7">
     <g id="line2d_16">
      <g>
       <use style="stroke:#000000;stroke-width:0.6;" x="38.88" xlink:href="#md02fd46b42" y="75.044571"/>
      </g>
     </g>
    </g>
    <g id="ytick_8">
     <g id="line2d_17">
      <g>
       <use style="stroke:#000000;stroke-width:0.6;" x="38.88" xlink:href="#md02fd46b42" y="60.582857"/>
      </g>
     </g>
    </g>
    <g id="ytick_9">
     <g id="line2d_18">
      <g>
       <use style="stroke:#000000;stroke-width:0.6;" x="38.88" xlink:href="#md02fd46b42" y="53.352"/>
      </g>
     </g>
    </g>
    <g id="ytick_10">
     <g id="line2d_19">
      <g>
       <use style="stroke:#000000;stroke-width:0.6;" x="38.88" xlink:href="#md02fd46b42" y="46.121143"/>
      </g>
     </g>
    </g>
    <g id="ytick_11">
     <g id="line2d_20">
      <g>
       <use style="stroke:#000000;stroke-width:0.6;" x="38.88" xlink:href="#md02fd46b42" y="38.890286"/>
      </g>
     </g>
    </g>
    <g id="ytick_12">
     <g id="line2d_21">
      <g>
       <use style="stroke:#000000;stroke-width:0.6;" x="38.88" xlink:href="#md02fd46b42" y="24.428571"/>
      </g>
     </g>
    </g>
    <g id="ytick_13">
     <g id="line2d_22">
      <g>
       <use style="stroke:#000000;stroke-width:0.6;" x="38.88" xlink:href="#md02fd46b42" y="17.197714"/>
      </g>
     </g>
    </g>
    <g id="ytick_14">
     <g id="line2d_23">
      <g>
       <use style="stroke:#000000;stroke-width:0.6;" x="38.88" xlink:href="#md02fd46b42" y="9.966857"/>
      </g>
     </g>
    </g>
    <g id="ytick_15">
     <g id="line2d_24">
      <g>
       <use style="stroke:#000000;stroke-width:0.6;" x="38.88" xlink:href="#md02fd46b42" y="2.736"/>
      </g>
     </g>
    </g>
    <g id="text_7">
     <!-- INaK -->
     <g transform="translate(9.897187 64.910594)rotate(-90)scale(0.1 -0.1)">
      <defs>
       <path d="M 9.8125 72.90625 
L 19.671875 72.90625 
L 19.671875 0 
L 9.8125 0 
z
" id="DejaVuSans-73"/>
       <path d="M 9.8125 72.90625 
L 23.09375 72.90625 
L 55.421875 11.921875 
L 55.421875 72.90625 
L 64.984375 72.90625 
L 64.984375 0 
L 51.703125 0 
L 19.390625 60.984375 
L 19.390625 0 
L 9.8125 0 
z
" id="DejaVuSans-78"/>
       <path d="M 34.28125 27.484375 
Q 23.390625 27.484375 19.1875 25 
Q 14.984375 22.515625 14.984375 16.5 
Q 14.984375 11.71875 18.140625 8.90625 
Q 21.296875 6.109375 26.703125 6.109375 
Q 34.1875 6.109375 38.703125 11.40625 
Q 43.21875 16.703125 43.21875 25.484375 
L 43.21875 27.484375 
z
M 52.203125 31.203125 
L 52.203125 0 
L 43.21875 0 
L 43.21875 8.296875 
Q 40.140625 3.328125 35.546875 0.953125 
Q 30.953125 -1.421875 24.3125 -1.421875 
Q 15.921875 -1.421875 10.953125 3.296875 
Q 6 8.015625 6 15.921875 
Q 6 25.140625 12.171875 29.828125 
Q 18.359375 34.515625 30.609375 34.515625 
L 43.21875 34.515625 
L 43.21875 35.40625 
Q 43.21875 41.609375 39.140625 45 
Q 35.0625 48.390625 27.6875 48.390625 
Q 23 48.390625 18.546875 47.265625 
Q 14.109375 46.140625 10.015625 43.890625 
L 10.015625 52.203125 
Q 14.9375 54.109375 19.578125 55.046875 
Q 24.21875 56 28.609375 56 
Q 40.484375 56 46.34375 49.84375 
Q 52.203125 43.703125 52.203125 31.203125 
z
" id="DejaVuSans-97"/>
      </defs>
      <use xlink:href="#DejaVuSans-73"/>
      <use x="29.492188" xlink:href="#DejaVuSans-78"/>
      <use x="104.296875" xlink:href="#DejaVuSans-97"/>
      <use x="165.576172" xlink:href="#DejaVuSans-75"/>
     </g>
    </g>
   </g>
   <g id="line2d_25">
    <path clip-path="url(#peb016eb878)" d="M 43.249091 103.968 
L 44.131736 95.831175 
L 45.01438 89.061884 
L 45.897025 83.342095 
L 46.779669 78.445297 
L 47.662314 74.205788 
L 48.544959 70.49955 
L 49.427603 67.23192 
L 50.310248 64.329389 
L 51.192893 61.734003 
L 52.075537 59.399461 
L 52.958182 57.288319 
L 53.840826 55.369976 
L 54.723471 53.619174 
L 55.606116 52.014883 
L 56.48876 50.53945 
L 57.371405 49.17795 
L 58.25405 47.917677 
L 59.136694 46.747746 
L 60.019339 45.65878 
L 60.901983 44.642653 
L 61.784628 43.692296 
L 62.667273 42.801522 
L 63.549917 41.964898 
L 64.432562 41.177633 
L 65.315207 40.435483 
L 66.197851 39.734679 
L 67.080496 39.071859 
L 67.96314 38.444016 
L 68.845785 37.848452 
L 69.72843 37.282742 
L 70.611074 36.744695 
L 71.493719 36.23233 
L 72.376364 35.743851 
L 73.259008 35.277627 
L 74.141653 34.83217 
L 75.024298 34.406123 
L 75.906942 33.998244 
L 76.789587 33.607396 
L 77.672231 33.232533 
L 78.554876 32.872695 
L 79.437521 32.526996 
L 80.320165 32.194618 
L 81.20281 31.874807 
L 82.085455 31.566863 
L 82.968099 31.270137 
L 83.850744 30.984027 
L 84.733388 30.707974 
L 85.616033 30.441456 
L 86.498678 30.183989 
L 87.381322 29.935118 
L 88.263967 29.69442 
L 89.146612 29.461499 
L 90.029256 29.235984 
L 90.911901 29.017527 
L 91.794545 28.805802 
L 92.67719 28.600504 
L 93.559835 28.401342 
L 94.442479 28.208047 
L 95.325124 28.020363 
L 96.207769 27.838049 
L 97.090413 27.660878 
L 97.973058 27.488635 
L 98.855702 27.321117 
L 99.738347 27.158133 
L 100.620992 26.999501 
L 101.503636 26.845049 
L 102.386281 26.694615 
L 103.268926 26.548042 
L 104.15157 26.405185 
L 105.034215 26.265903 
L 105.91686 26.130065 
L 106.799504 25.997545 
L 107.682149 25.868221 
L 108.564793 25.74198 
L 109.447438 25.618713 
L 110.330083 25.498316 
L 111.212727 25.38069 
L 112.095372 25.26574 
L 112.978017 25.153376 
L 113.860661 25.043512 
L 114.743306 24.936066 
L 115.62595 24.830957 
L 116.508595 24.728112 
L 117.39124 24.627457 
L 118.273884 24.528923 
L 119.156529 24.432444 
L 120.039174 24.337957 
L 120.921818 24.245399 
L 121.804463 24.154714 
L 122.687107 24.065844 
L 123.569752 23.978736 
L 124.452397 23.893337 
L 125.335041 23.809598 
L 126.217686 23.727471 
L 127.100331 23.64691 
L 127.982975 23.56787 
L 128.86562 23.490309 
L 129.748264 23.414186 
L 130.630909 23.339461 
" style="fill:none;stroke:#1f77b4;stroke-linecap:square;stroke-width:1.5;"/>
   </g>
   <g id="patch_3">
    <path d="M 38.88 103.968 
L 38.88 2.736 
" style="fill:none;stroke:#000000;stroke-linecap:square;stroke-linejoin:miter;stroke-width:0.8;"/>
   </g>
   <g id="patch_4">
    <path d="M 38.88 103.968 
L 135 103.968 
" style="fill:none;stroke:#000000;stroke-linecap:square;stroke-linejoin:miter;stroke-width:0.8;"/>
   </g>
  </g>
  <g id="axes_2">
   <g id="patch_5">
    <path d="M 183.06 103.968 
L 279.18 103.968 
L 279.18 2.736 
L 183.06 2.736 
z
" style="fill:#ffffff;"/>
   </g>
   <g id="line2d_26">
    <path clip-path="url(#pcf9108accb)" d="M 228.415507 103.968 
L 228.415507 2.736 
" style="fill:none;stroke:#cccccc;stroke-linecap:square;stroke-width:1.5;"/>
   </g>
   <g id="matplotlib.axis_3">
    <g id="xtick_9">
     <g id="line2d_27">
      <g>
       <use style="stroke:#000000;stroke-width:0.8;" x="187.429091" xlink:href="#m79d4ab34e0" y="103.968"/>
      </g>
     </g>
     <g id="text_8">
      <!-- 0 -->
      <g transform="translate(184.247841 118.566437)scale(0.1 -0.1)">
       <use xlink:href="#DejaVuSans-48"/>
      </g>
     </g>
    </g>
    <g id="xtick_10">
     <g id="line2d_28">
      <g>
       <use style="stroke:#000000;stroke-width:0.8;" x="231.12" xlink:href="#m79d4ab34e0" y="103.968"/>
      </g>
     </g>
     <g id="text_9">
      <!-- 10 -->
      <g transform="translate(224.7575 118.566437)scale(0.1 -0.1)">
       <use xlink:href="#DejaVuSans-49"/>
       <use x="63.623047" xlink:href="#DejaVuSans-48"/>
      </g>
     </g>
    </g>
    <g id="xtick_11">
     <g id="line2d_29">
      <g>
       <use style="stroke:#000000;stroke-width:0.8;" x="274.810909" xlink:href="#m79d4ab34e0" y="103.968"/>
      </g>
     </g>
     <g id="text_10">
      <!-- 20 -->
      <g transform="translate(268.448409 118.566437)scale(0.1 -0.1)">
       <use xlink:href="#DejaVuSans-50"/>
       <use x="63.623047" xlink:href="#DejaVuSans-48"/>
      </g>
     </g>
    </g>
    <g id="xtick_12">
     <g id="line2d_30">
      <g>
       <use style="stroke:#000000;stroke-width:0.6;" x="196.167273" xlink:href="#mf6fa15b294" y="103.968"/>
      </g>
     </g>
    </g>
    <g id="xtick_13">
     <g id="line2d_31">
      <g>
       <use style="stroke:#000000;stroke-width:0.6;" x="204.905455" xlink:href="#mf6fa15b294" y="103.968"/>
      </g>
     </g>
    </g>
    <g id="xtick_14">
     <g id="line2d_32">
      <g>
       <use style="stroke:#000000;stroke-width:0.6;" x="213.643636" xlink:href="#mf6fa15b294" y="103.968"/>
      </g>
     </g>
    </g>
    <g id="xtick_15">
     <g id="line2d_33">
      <g>
       <use style="stroke:#000000;stroke-width:0.6;" x="222.381818" xlink:href="#mf6fa15b294" y="103.968"/>
      </g>
     </g>
    </g>
    <g id="xtick_16">
     <g id="line2d_34">
      <g>
       <use style="stroke:#000000;stroke-width:0.6;" x="239.858182" xlink:href="#mf6fa15b294" y="103.968"/>
      </g>
     </g>
    </g>
    <g id="xtick_17">
     <g id="line2d_35">
      <g>
       <use style="stroke:#000000;stroke-width:0.6;" x="248.596364" xlink:href="#mf6fa15b294" y="103.968"/>
      </g>
     </g>
    </g>
    <g id="xtick_18">
     <g id="line2d_36">
      <g>
       <use style="stroke:#000000;stroke-width:0.6;" x="257.334545" xlink:href="#mf6fa15b294" y="103.968"/>
      </g>
     </g>
    </g>
    <g id="xtick_19">
     <g id="line2d_37">
      <g>
       <use style="stroke:#000000;stroke-width:0.6;" x="266.072727" xlink:href="#mf6fa15b294" y="103.968"/>
      </g>
     </g>
    </g>
    <g id="text_11">
     <!-- [Na$^+$]$_i$ (mM) -->
     <g transform="translate(200.07 132.566437)scale(0.1 -0.1)">
      <defs>
       <path d="M 18.3125 75.984375 
L 27.296875 75.984375 
L 25.09375 64.59375 
L 16.109375 64.59375 
z
M 14.203125 54.6875 
L 23.1875 54.6875 
L 12.5 0 
L 3.515625 0 
z
" id="DejaVuSans-Oblique-105"/>
      </defs>
      <use transform="translate(0 0.826562)" xlink:href="#DejaVuSans-91"/>
      <use transform="translate(39.013672 0.826562)" xlink:href="#DejaVuSans-78"/>
      <use transform="translate(113.818359 0.826562)" xlink:href="#DejaVuSans-97"/>
      <use transform="translate(189.692383 39.107812)scale(0.7)" xlink:href="#DejaVuSans-43"/>
      <use transform="translate(264.716797 0.826562)" xlink:href="#DejaVuSans-93"/>
      <use transform="translate(304.6875 -15.579688)scale(0.7)" xlink:href="#DejaVuSans-Oblique-105"/>
      <use transform="translate(326.870117 0.826562)" xlink:href="#DejaVuSans-32"/>
      <use transform="translate(358.657227 0.826562)" xlink:href="#DejaVuSans-40"/>
      <use transform="translate(397.670898 0.826562)" xlink:href="#DejaVuSans-109"/>
      <use transform="translate(495.083008 0.826562)" xlink:href="#DejaVuSans-77"/>
      <use transform="translate(581.362305 0.826562)" xlink:href="#DejaVuSans-41"/>
     </g>
    </g>
   </g>
   <g id="matplotlib.axis_4">
    <g id="ytick_16">
     <g id="line2d_38">
      <g>
       <use style="stroke:#000000;stroke-width:0.8;" x="183.06" xlink:href="#m0d2c354f92" y="103.968"/>
      </g>
     </g>
     <g id="text_12">
      <!-- 0.0 -->
      <g transform="translate(160.156875 107.767219)scale(0.1 -0.1)">
       <use xlink:href="#DejaVuSans-48"/>
       <use x="63.623047" xlink:href="#DejaVuSans-46"/>
       <use x="95.410156" xlink:href="#DejaVuSans-48"/>
      </g>
     </g>
    </g>
    <g id="ytick_17">
     <g id="line2d_39">
      <g>
       <use style="stroke:#000000;stroke-width:0.8;" x="183.06" xlink:href="#m0d2c354f92" y="67.813714"/>
      </g>
     </g>
     <g id="text_13">
      <!-- 0.1 -->
      <g transform="translate(160.156875 71.612933)scale(0.1 -0.1)">
       <use xlink:href="#DejaVuSans-48"/>
       <use x="63.623047" xlink:href="#DejaVuSans-46"/>
       <use x="95.410156" xlink:href="#DejaVuSans-49"/>
      </g>
     </g>
    </g>
    <g id="ytick_18">
     <g id="line2d_40">
      <g>
       <use style="stroke:#000000;stroke-width:0.8;" x="183.06" xlink:href="#m0d2c354f92" y="31.659429"/>
      </g>
     </g>
     <g id="text_14">
      <!-- 0.2 -->
      <g transform="translate(160.156875 35.458647)scale(0.1 -0.1)">
       <use xlink:href="#DejaVuSans-48"/>
       <use x="63.623047" xlink:href="#DejaVuSans-46"/>
       <use x="95.410156" xlink:href="#DejaVuSans-50"/>
      </g>
     </g>
    </g>
    <g id="ytick_19">
     <g id="line2d_41">
      <g>
       <use style="stroke:#000000;stroke-width:0.6;" x="183.06" xlink:href="#md02fd46b42" y="96.737143"/>
      </g>
     </g>
    </g>
    <g id="ytick_20">
     <g id="line2d_42">
      <g>
       <use style="stroke:#000000;stroke-width:0.6;" x="183.06" xlink:href="#md02fd46b42" y="89.506286"/>
      </g>
     </g>
    </g>
    <g id="ytick_21">
     <g id="line2d_43">
      <g>
       <use style="stroke:#000000;stroke-width:0.6;" x="183.06" xlink:href="#md02fd46b42" y="82.275429"/>
      </g>
     </g>
    </g>
    <g id="ytick_22">
     <g id="line2d_44">
      <g>
       <use style="stroke:#000000;stroke-width:0.6;" x="183.06" xlink:href="#md02fd46b42" y="75.044571"/>
      </g>
     </g>
    </g>
    <g id="ytick_23">
     <g id="line2d_45">
      <g>
       <use style="stroke:#000000;stroke-width:0.6;" x="183.06" xlink:href="#md02fd46b42" y="60.582857"/>
      </g>
     </g>
    </g>
    <g id="ytick_24">
     <g id="line2d_46">
      <g>
       <use style="stroke:#000000;stroke-width:0.6;" x="183.06" xlink:href="#md02fd46b42" y="53.352"/>
      </g>
     </g>
    </g>
    <g id="ytick_25">
     <g id="line2d_47">
      <g>
       <use style="stroke:#000000;stroke-width:0.6;" x="183.06" xlink:href="#md02fd46b42" y="46.121143"/>
      </g>
     </g>
    </g>
    <g id="ytick_26">
     <g id="line2d_48">
      <g>
       <use style="stroke:#000000;stroke-width:0.6;" x="183.06" xlink:href="#md02fd46b42" y="38.890286"/>
      </g>
     </g>
    </g>
    <g id="ytick_27">
     <g id="line2d_49">
      <g>
       <use style="stroke:#000000;stroke-width:0.6;" x="183.06" xlink:href="#md02fd46b42" y="24.428571"/>
      </g>
     </g>
    </g>
    <g id="ytick_28">
     <g id="line2d_50">
      <g>
       <use style="stroke:#000000;stroke-width:0.6;" x="183.06" xlink:href="#md02fd46b42" y="17.197714"/>
      </g>
     </g>
    </g>
    <g id="ytick_29">
     <g id="line2d_51">
      <g>
       <use style="stroke:#000000;stroke-width:0.6;" x="183.06" xlink:href="#md02fd46b42" y="9.966857"/>
      </g>
     </g>
    </g>
    <g id="ytick_30">
     <g id="line2d_52">
      <g>
       <use style="stroke:#000000;stroke-width:0.6;" x="183.06" xlink:href="#md02fd46b42" y="2.736"/>
      </g>
     </g>
    </g>
    <g id="text_15">
     <!-- INaK -->
     <g transform="translate(154.077187 64.910594)rotate(-90)scale(0.1 -0.1)">
      <use xlink:href="#DejaVuSans-73"/>
      <use x="29.492188" xlink:href="#DejaVuSans-78"/>
      <use x="104.296875" xlink:href="#DejaVuSans-97"/>
      <use x="165.576172" xlink:href="#DejaVuSans-75"/>
     </g>
    </g>
   </g>
   <g id="line2d_53">
    <path clip-path="url(#pcf9108accb)" d="M 187.429091 42.190619 
L 188.311736 42.190616 
L 189.19438 42.190578 
L 190.077025 42.190415 
L 190.959669 42.189976 
L 191.842314 42.189049 
L 192.724959 42.187365 
L 193.607603 42.184591 
L 194.490248 42.180338 
L 195.372893 42.174156 
L 196.255537 42.165537 
L 197.138182 42.153916 
L 198.020826 42.138673 
L 198.903471 42.119135 
L 199.786116 42.094577 
L 200.66876 42.064228 
L 201.551405 42.027277 
L 202.43405 41.982873 
L 203.316694 41.930137 
L 204.199339 41.868166 
L 205.081983 41.796044 
L 205.964628 41.712851 
L 206.847273 41.617676 
L 207.729917 41.509624 
L 208.612562 41.387836 
L 209.495207 41.251501 
L 210.377851 41.099867 
L 211.260496 40.932261 
L 212.14314 40.7481 
L 213.025785 40.54691 
L 213.90843 40.328334 
L 214.791074 40.09215 
L 215.673719 39.838279 
L 216.556364 39.566792 
L 217.439008 39.277919 
L 218.321653 38.972049 
L 219.204298 38.649734 
L 220.086942 38.311682 
L 220.969587 37.958749 
L 221.852231 37.591936 
L 222.734876 37.212368 
L 223.617521 36.821284 
L 224.500165 36.420018 
L 225.38281 36.009977 
L 226.265455 35.592624 
L 227.148099 35.169457 
L 228.030744 34.741985 
L 228.913388 34.31171 
L 229.796033 33.880109 
L 230.678678 33.448612 
L 231.561322 33.018592 
L 232.443967 32.591347 
L 233.326612 32.168093 
L 234.209256 31.749953 
L 235.091901 31.337948 
L 235.974545 30.932999 
L 236.85719 30.535921 
L 237.739835 30.147424 
L 238.622479 29.768115 
L 239.505124 29.398502 
L 240.387769 29.038995 
L 241.270413 28.689916 
L 242.153058 28.351501 
L 243.035702 28.023909 
L 243.918347 27.707228 
L 244.800992 27.401481 
L 245.683636 27.106635 
L 246.566281 26.822605 
L 247.448926 26.549261 
L 248.33157 26.286436 
L 249.214215 26.033932 
L 250.09686 25.791521 
L 250.979504 25.558954 
L 251.862149 25.335963 
L 252.744793 25.12227 
L 253.627438 24.917581 
L 254.510083 24.7216 
L 255.392727 24.534024 
L 256.275372 24.354548 
L 257.158017 24.18287 
L 258.040661 24.018687 
L 258.923306 23.861702 
L 259.80595 23.711621 
L 260.688595 23.568157 
L 261.57124 23.43103 
L 262.453884 23.299967 
L 263.336529 23.174704 
L 264.219174 23.054983 
L 265.101818 22.940558 
L 265.984463 22.831189 
L 266.867107 22.726646 
L 267.749752 22.626709 
L 268.632397 22.531165 
L 269.515041 22.439811 
L 270.397686 22.352452 
L 271.280331 22.268902 
L 272.162975 22.188982 
L 273.04562 22.112524 
L 273.928264 22.039363 
L 274.810909 21.969347 
" style="fill:none;stroke:#1f77b4;stroke-linecap:square;stroke-width:1.5;"/>
   </g>
   <g id="patch_6">
    <path d="M 183.06 103.968 
L 183.06 2.736 
" style="fill:none;stroke:#000000;stroke-linecap:square;stroke-linejoin:miter;stroke-width:0.8;"/>
   </g>
   <g id="patch_7">
    <path d="M 183.06 103.968 
L 279.18 103.968 
" style="fill:none;stroke:#000000;stroke-linecap:square;stroke-linejoin:miter;stroke-width:0.8;"/>
   </g>
  </g>
  <g id="axes_3">
   <g id="patch_8">
    <path d="M 327.24 103.968 
L 423.36 103.968 
L 423.36 2.736 
L 327.24 2.736 
z
" style="fill:#ffffff;"/>
   </g>
   <g id="line2d_54">
    <path clip-path="url(#p7279bc546a)" d="M 367.613244 103.968 
L 367.613244 2.736 
" style="fill:none;stroke:#cccccc;stroke-linecap:square;stroke-width:1.5;"/>
   </g>
   <g id="matplotlib.axis_5">
    <g id="xtick_20">
     <g id="line2d_55">
      <g>
       <use style="stroke:#000000;stroke-width:0.8;" x="331.609091" xlink:href="#m79d4ab34e0" y="103.968"/>
      </g>
     </g>
     <g id="text_16">
      <!-- −100 -->
      <g transform="translate(317.875497 118.566437)scale(0.1 -0.1)">
       <defs>
        <path d="M 10.59375 35.5 
L 73.1875 35.5 
L 73.1875 27.203125 
L 10.59375 27.203125 
z
" id="DejaVuSans-8722"/>
       </defs>
       <use xlink:href="#DejaVuSans-8722"/>
       <use x="83.789062" xlink:href="#DejaVuSans-49"/>
       <use x="147.412109" xlink:href="#DejaVuSans-48"/>
       <use x="211.035156" xlink:href="#DejaVuSans-48"/>
      </g>
     </g>
    </g>
    <g id="xtick_21">
     <g id="line2d_56">
      <g>
       <use style="stroke:#000000;stroke-width:0.8;" x="368.018182" xlink:href="#m79d4ab34e0" y="103.968"/>
      </g>
     </g>
     <g id="text_17">
      <!-- −75 -->
      <g transform="translate(357.465838 118.566437)scale(0.1 -0.1)">
       <defs>
        <path d="M 8.203125 72.90625 
L 55.078125 72.90625 
L 55.078125 68.703125 
L 28.609375 0 
L 18.3125 0 
L 43.21875 64.59375 
L 8.203125 64.59375 
z
" id="DejaVuSans-55"/>
        <path d="M 10.796875 72.90625 
L 49.515625 72.90625 
L 49.515625 64.59375 
L 19.828125 64.59375 
L 19.828125 46.734375 
Q 21.96875 47.46875 24.109375 47.828125 
Q 26.265625 48.1875 28.421875 48.1875 
Q 40.625 48.1875 47.75 41.5 
Q 54.890625 34.8125 54.890625 23.390625 
Q 54.890625 11.625 47.5625 5.09375 
Q 40.234375 -1.421875 26.90625 -1.421875 
Q 22.3125 -1.421875 17.546875 -0.640625 
Q 12.796875 0.140625 7.71875 1.703125 
L 7.71875 11.625 
Q 12.109375 9.234375 16.796875 8.0625 
Q 21.484375 6.890625 26.703125 6.890625 
Q 35.15625 6.890625 40.078125 11.328125 
Q 45.015625 15.765625 45.015625 23.390625 
Q 45.015625 31 40.078125 35.4375 
Q 35.15625 39.890625 26.703125 39.890625 
Q 22.75 39.890625 18.8125 39.015625 
Q 14.890625 38.140625 10.796875 36.28125 
z
" id="DejaVuSans-53"/>
       </defs>
       <use xlink:href="#DejaVuSans-8722"/>
       <use x="83.789062" xlink:href="#DejaVuSans-55"/>
       <use x="147.412109" xlink:href="#DejaVuSans-53"/>
      </g>
     </g>
    </g>
    <g id="xtick_22">
     <g id="line2d_57">
      <g>
       <use style="stroke:#000000;stroke-width:0.8;" x="404.427273" xlink:href="#m79d4ab34e0" y="103.968"/>
      </g>
     </g>
     <g id="text_18">
      <!-- −50 -->
      <g transform="translate(393.874929 118.566437)scale(0.1 -0.1)">
       <use xlink:href="#DejaVuSans-8722"/>
       <use x="83.789062" xlink:href="#DejaVuSans-53"/>
       <use x="147.412109" xlink:href="#DejaVuSans-48"/>
      </g>
     </g>
    </g>
    <g id="xtick_23">
     <g id="line2d_58">
      <g>
       <use style="stroke:#000000;stroke-width:0.6;" x="338.890909" xlink:href="#mf6fa15b294" y="103.968"/>
      </g>
     </g>
    </g>
    <g id="xtick_24">
     <g id="line2d_59">
      <g>
       <use style="stroke:#000000;stroke-width:0.6;" x="346.172727" xlink:href="#mf6fa15b294" y="103.968"/>
      </g>
     </g>
    </g>
    <g id="xtick_25">
     <g id="line2d_60">
      <g>
       <use style="stroke:#000000;stroke-width:0.6;" x="353.454545" xlink:href="#mf6fa15b294" y="103.968"/>
      </g>
     </g>
    </g>
    <g id="xtick_26">
     <g id="line2d_61">
      <g>
       <use style="stroke:#000000;stroke-width:0.6;" x="360.736364" xlink:href="#mf6fa15b294" y="103.968"/>
      </g>
     </g>
    </g>
    <g id="xtick_27">
     <g id="line2d_62">
      <g>
       <use style="stroke:#000000;stroke-width:0.6;" x="375.3" xlink:href="#mf6fa15b294" y="103.968"/>
      </g>
     </g>
    </g>
    <g id="xtick_28">
     <g id="line2d_63">
      <g>
       <use style="stroke:#000000;stroke-width:0.6;" x="382.581818" xlink:href="#mf6fa15b294" y="103.968"/>
      </g>
     </g>
    </g>
    <g id="xtick_29">
     <g id="line2d_64">
      <g>
       <use style="stroke:#000000;stroke-width:0.6;" x="389.863636" xlink:href="#mf6fa15b294" y="103.968"/>
      </g>
     </g>
    </g>
    <g id="xtick_30">
     <g id="line2d_65">
      <g>
       <use style="stroke:#000000;stroke-width:0.6;" x="397.145455" xlink:href="#mf6fa15b294" y="103.968"/>
      </g>
     </g>
    </g>
    <g id="xtick_31">
     <g id="line2d_66">
      <g>
       <use style="stroke:#000000;stroke-width:0.6;" x="411.709091" xlink:href="#mf6fa15b294" y="103.968"/>
      </g>
     </g>
    </g>
    <g id="xtick_32">
     <g id="line2d_67">
      <g>
       <use style="stroke:#000000;stroke-width:0.6;" x="418.990909" xlink:href="#mf6fa15b294" y="103.968"/>
      </g>
     </g>
    </g>
    <g id="text_19">
     <!-- V (mV) -->
     <g transform="translate(358.098437 132.244563)scale(0.1 -0.1)">
      <defs>
       <path d="M 28.609375 0 
L 0.78125 72.90625 
L 11.078125 72.90625 
L 34.1875 11.53125 
L 57.328125 72.90625 
L 67.578125 72.90625 
L 39.796875 0 
z
" id="DejaVuSans-86"/>
      </defs>
      <use xlink:href="#DejaVuSans-86"/>
      <use x="68.408203" xlink:href="#DejaVuSans-32"/>
      <use x="100.195312" xlink:href="#DejaVuSans-40"/>
      <use x="139.208984" xlink:href="#DejaVuSans-109"/>
      <use x="236.621094" xlink:href="#DejaVuSans-86"/>
      <use x="305.029297" xlink:href="#DejaVuSans-41"/>
     </g>
    </g>
   </g>
   <g id="matplotlib.axis_6">
    <g id="ytick_31">
     <g id="line2d_68">
      <g>
       <use style="stroke:#000000;stroke-width:0.8;" x="327.24" xlink:href="#m0d2c354f92" y="103.968"/>
      </g>
     </g>
     <g id="text_20">
      <!-- 0.0 -->
      <g transform="translate(304.336875 107.767219)scale(0.1 -0.1)">
       <use xlink:href="#DejaVuSans-48"/>
       <use x="63.623047" xlink:href="#DejaVuSans-46"/>
       <use x="95.410156" xlink:href="#DejaVuSans-48"/>
      </g>
     </g>
    </g>
    <g id="ytick_32">
     <g id="line2d_69">
      <g>
       <use style="stroke:#000000;stroke-width:0.8;" x="327.24" xlink:href="#m0d2c354f92" y="67.813714"/>
      </g>
     </g>
     <g id="text_21">
      <!-- 0.1 -->
      <g transform="translate(304.336875 71.612933)scale(0.1 -0.1)">
       <use xlink:href="#DejaVuSans-48"/>
       <use x="63.623047" xlink:href="#DejaVuSans-46"/>
       <use x="95.410156" xlink:href="#DejaVuSans-49"/>
      </g>
     </g>
    </g>
    <g id="ytick_33">
     <g id="line2d_70">
      <g>
       <use style="stroke:#000000;stroke-width:0.8;" x="327.24" xlink:href="#m0d2c354f92" y="31.659429"/>
      </g>
     </g>
     <g id="text_22">
      <!-- 0.2 -->
      <g transform="translate(304.336875 35.458647)scale(0.1 -0.1)">
       <use xlink:href="#DejaVuSans-48"/>
       <use x="63.623047" xlink:href="#DejaVuSans-46"/>
       <use x="95.410156" xlink:href="#DejaVuSans-50"/>
      </g>
     </g>
    </g>
    <g id="ytick_34">
     <g id="line2d_71">
      <g>
       <use style="stroke:#000000;stroke-width:0.6;" x="327.24" xlink:href="#md02fd46b42" y="96.737143"/>
      </g>
     </g>
    </g>
    <g id="ytick_35">
     <g id="line2d_72">
      <g>
       <use style="stroke:#000000;stroke-width:0.6;" x="327.24" xlink:href="#md02fd46b42" y="89.506286"/>
      </g>
     </g>
    </g>
    <g id="ytick_36">
     <g id="line2d_73">
      <g>
       <use style="stroke:#000000;stroke-width:0.6;" x="327.24" xlink:href="#md02fd46b42" y="82.275429"/>
      </g>
     </g>
    </g>
    <g id="ytick_37">
     <g id="line2d_74">
      <g>
       <use style="stroke:#000000;stroke-width:0.6;" x="327.24" xlink:href="#md02fd46b42" y="75.044571"/>
      </g>
     </g>
    </g>
    <g id="ytick_38">
     <g id="line2d_75">
      <g>
       <use style="stroke:#000000;stroke-width:0.6;" x="327.24" xlink:href="#md02fd46b42" y="60.582857"/>
      </g>
     </g>
    </g>
    <g id="ytick_39">
     <g id="line2d_76">
      <g>
       <use style="stroke:#000000;stroke-width:0.6;" x="327.24" xlink:href="#md02fd46b42" y="53.352"/>
      </g>
     </g>
    </g>
    <g id="ytick_40">
     <g id="line2d_77">
      <g>
       <use style="stroke:#000000;stroke-width:0.6;" x="327.24" xlink:href="#md02fd46b42" y="46.121143"/>
      </g>
     </g>
    </g>
    <g id="ytick_41">
     <g id="line2d_78">
      <g>
       <use style="stroke:#000000;stroke-width:0.6;" x="327.24" xlink:href="#md02fd46b42" y="38.890286"/>
      </g>
     </g>
    </g>
    <g id="ytick_42">
     <g id="line2d_79">
      <g>
       <use style="stroke:#000000;stroke-width:0.6;" x="327.24" xlink:href="#md02fd46b42" y="24.428571"/>
      </g>
     </g>
    </g>
    <g id="ytick_43">
     <g id="line2d_80">
      <g>
       <use style="stroke:#000000;stroke-width:0.6;" x="327.24" xlink:href="#md02fd46b42" y="17.197714"/>
      </g>
     </g>
    </g>
    <g id="ytick_44">
     <g id="line2d_81">
      <g>
       <use style="stroke:#000000;stroke-width:0.6;" x="327.24" xlink:href="#md02fd46b42" y="9.966857"/>
      </g>
     </g>
    </g>
    <g id="ytick_45">
     <g id="line2d_82">
      <g>
       <use style="stroke:#000000;stroke-width:0.6;" x="327.24" xlink:href="#md02fd46b42" y="2.736"/>
      </g>
     </g>
    </g>
    <g id="text_23">
     <!-- INaK -->
     <g transform="translate(298.257187 64.910594)rotate(-90)scale(0.1 -0.1)">
      <use xlink:href="#DejaVuSans-73"/>
      <use x="29.492188" xlink:href="#DejaVuSans-78"/>
      <use x="104.296875" xlink:href="#DejaVuSans-97"/>
      <use x="165.576172" xlink:href="#DejaVuSans-75"/>
     </g>
    </g>
   </g>
   <g id="line2d_83">
    <path clip-path="url(#p7279bc546a)" d="M 331.609091 58.702551 
L 332.491736 58.112885 
L 333.37438 57.521262 
L 334.257025 56.927817 
L 335.139669 56.33269 
L 336.022314 55.736021 
L 336.904959 55.13795 
L 337.787603 54.538622 
L 338.670248 53.938179 
L 339.552893 53.336767 
L 340.435537 52.734531 
L 341.318182 52.131617 
L 342.200826 51.528172 
L 343.083471 50.924343 
L 343.966116 50.320277 
L 344.84876 49.716122 
L 345.731405 49.112025 
L 346.61405 48.508133 
L 347.496694 47.904594 
L 348.379339 47.301552 
L 349.261983 46.699154 
L 350.144628 46.097544 
L 351.027273 45.496867 
L 351.909917 44.897264 
L 352.792562 44.298878 
L 353.675207 43.701849 
L 354.557851 43.106315 
L 355.440496 42.512414 
L 356.32314 41.920281 
L 357.205785 41.330049 
L 358.08843 40.74185 
L 358.971074 40.155813 
L 359.853719 39.572066 
L 360.736364 38.990733 
L 361.619008 38.411938 
L 362.501653 37.8358 
L 363.384298 37.262436 
L 364.266942 36.691962 
L 365.149587 36.12449 
L 366.032231 35.560129 
L 366.914876 34.998986 
L 367.797521 34.441163 
L 368.680165 33.886761 
L 369.56281 33.335878 
L 370.445455 32.788608 
L 371.328099 32.245041 
L 372.210744 31.705266 
L 373.093388 31.169368 
L 373.976033 30.637427 
L 374.858678 30.109522 
L 375.741322 29.585728 
L 376.623967 29.066116 
L 377.506612 28.550754 
L 378.389256 28.039707 
L 379.271901 27.533037 
L 380.154545 27.030802 
L 381.03719 26.533056 
L 381.919835 26.039853 
L 382.802479 25.551238 
L 383.685124 25.067259 
L 384.567769 24.587957 
L 385.450413 24.11337 
L 386.333058 23.643534 
L 387.215702 23.178482 
L 388.098347 22.718243 
L 388.980992 22.262843 
L 389.863636 21.812306 
L 390.746281 21.366652 
L 391.628926 20.925899 
L 392.51157 20.490061 
L 393.394215 20.059151 
L 394.27686 19.633177 
L 395.159504 19.212146 
L 396.042149 18.796063 
L 396.924793 18.384929 
L 397.807438 17.978742 
L 398.690083 17.5775 
L 399.572727 17.181197 
L 400.455372 16.789824 
L 401.338017 16.403372 
L 402.220661 16.021829 
L 403.103306 15.645179 
L 403.98595 15.273407 
L 404.868595 14.906495 
L 405.75124 14.544422 
L 406.633884 14.187166 
L 407.516529 13.834704 
L 408.399174 13.487011 
L 409.281818 13.14406 
L 410.164463 12.805822 
L 411.047107 12.472267 
L 411.929752 12.143365 
L 412.812397 11.819084 
L 413.695041 11.499388 
L 414.577686 11.184245 
L 415.460331 10.873616 
L 416.342975 10.567466 
L 417.22562 10.265757 
L 418.108264 9.968449 
L 418.990909 9.675502 
" style="fill:none;stroke:#1f77b4;stroke-linecap:square;stroke-width:1.5;"/>
   </g>
   <g id="patch_9">
    <path d="M 327.24 103.968 
L 327.24 2.736 
" style="fill:none;stroke:#000000;stroke-linecap:square;stroke-linejoin:miter;stroke-width:0.8;"/>
   </g>
   <g id="patch_10">
    <path d="M 327.24 103.968 
L 423.36 103.968 
" style="fill:none;stroke:#000000;stroke-linecap:square;stroke-linejoin:miter;stroke-width:0.8;"/>
   </g>
  </g>
 </g>
 <defs>
  <clipPath id="peb016eb878">
   <rect height="101.232" width="96.12" x="38.88" y="2.736"/>
  </clipPath>
  <clipPath id="pcf9108accb">
   <rect height="101.232" width="96.12" x="183.06" y="2.736"/>
  </clipPath>
  <clipPath id="p7279bc546a">
   <rect height="101.232" width="96.12" x="327.24" y="2.736"/>
  </clipPath>
 </defs>
</svg>
