<?xml version="1.0" encoding="utf-8" standalone="no"?>
<!DOCTYPE svg PUBLIC "-//W3C//DTD SVG 1.1//EN"
  "http://www.w3.org/Graphics/SVG/1.1/DTD/svg11.dtd">
<!-- Created with matplotlib (https://matplotlib.org/) -->
<svg height="136.8pt" version="1.1" viewBox="0 0 432 136.8" width="432pt" xmlns="http://www.w3.org/2000/svg" xmlns:xlink="http://www.w3.org/1999/xlink">
 <metadata>
  <rdf:RDF xmlns:cc="http://creativecommons.org/ns#" xmlns:dc="http://purl.org/dc/elements/1.1/" xmlns:rdf="http://www.w3.org/1999/02/22-rdf-syntax-ns#">
   <cc:Work>
    <dc:type rdf:resource="http://purl.org/dc/dcmitype/StillImage"/>
    <dc:date>2021-01-08T12:21:04.738628</dc:date>
    <dc:format>image/svg+xml</dc:format>
    <dc:creator>
     <cc:Agent>
      <dc:title>Matplotlib v3.3.3, https://matplotlib.org/</dc:title>
     </cc:Agent>
    </dc:creator>
   </cc:Work>
  </rdf:RDF>
 </metadata>
 <defs>
  <style type="text/css">*{stroke-linecap:butt;stroke-linejoin:round;}</style>
 </defs>
 <g id="figure_1">
  <g id="patch_1">
   <path d="M 0 136.8 
L 432 136.8 
L 432 0 
L 0 0 
z
" style="fill:#ffffff;"/>
  </g>
  <g id="axes_1">
   <g id="patch_2">
    <path d="M 38.88 103.968 
L 135 103.968 
L 135 2.736 
L 38.88 2.736 
z
" style="fill:#ffffff;"/>
   </g>
   <g id="line2d_1">
    <path clip-path="url(#p385c8db894)" d="M 73.4832 103.968 
L 73.4832 2.736 
" style="fill:none;stroke:#cccccc;stroke-linecap:square;stroke-width:1.5;"/>
   </g>
   <g id="matplotlib.axis_1">
    <g id="xtick_1">
     <g id="line2d_2">
      <defs>
       <path d="M 0 0 
L 0 3.5 
" id="m532a281ea8" style="stroke:#000000;stroke-width:0.8;"/>
      </defs>
      <g>
       <use style="stroke:#000000;stroke-width:0.8;" x="38.88" xlink:href="#m532a281ea8" y="103.968"/>
      </g>
     </g>
     <g id="text_1">
      <!-- 0 -->
      <g transform="translate(35.69875 118.566437)scale(0.1 -0.1)">
       <defs>
        <path d="M 31.78125 66.40625 
Q 24.171875 66.40625 20.328125 58.90625 
Q 16.5 51.421875 16.5 36.375 
Q 16.5 21.390625 20.328125 13.890625 
Q 24.171875 6.390625 31.78125 6.390625 
Q 39.453125 6.390625 43.28125 13.890625 
Q 47.125 21.390625 47.125 36.375 
Q 47.125 51.421875 43.28125 58.90625 
Q 39.453125 66.40625 31.78125 66.40625 
z
M 31.78125 74.21875 
Q 44.046875 74.21875 50.515625 64.515625 
Q 56.984375 54.828125 56.984375 36.375 
Q 56.984375 17.96875 50.515625 8.265625 
Q 44.046875 -1.421875 31.78125 -1.421875 
Q 19.53125 -1.421875 13.0625 8.265625 
Q 6.59375 17.96875 6.59375 36.375 
Q 6.59375 54.828125 13.0625 64.515625 
Q 19.53125 74.21875 31.78125 74.21875 
z
" id="DejaVuSans-48"/>
       </defs>
       <use xlink:href="#DejaVuSans-48"/>
      </g>
     </g>
    </g>
    <g id="xtick_2">
     <g id="line2d_3">
      <g>
       <use style="stroke:#000000;stroke-width:0.8;" x="70.92" xlink:href="#m532a281ea8" y="103.968"/>
      </g>
     </g>
     <g id="text_2">
      <!-- 5 -->
      <g transform="translate(67.73875 118.566437)scale(0.1 -0.1)">
       <defs>
        <path d="M 10.796875 72.90625 
L 49.515625 72.90625 
L 49.515625 64.59375 
L 19.828125 64.59375 
L 19.828125 46.734375 
Q 21.96875 47.46875 24.109375 47.828125 
Q 26.265625 48.1875 28.421875 48.1875 
Q 40.625 48.1875 47.75 41.5 
Q 54.890625 34.8125 54.890625 23.390625 
Q 54.890625 11.625 47.5625 5.09375 
Q 40.234375 -1.421875 26.90625 -1.421875 
Q 22.3125 -1.421875 17.546875 -0.640625 
Q 12.796875 0.140625 7.71875 1.703125 
L 7.71875 11.625 
Q 12.109375 9.234375 16.796875 8.0625 
Q 21.484375 6.890625 26.703125 6.890625 
Q 35.15625 6.890625 40.078125 11.328125 
Q 45.015625 15.765625 45.015625 23.390625 
Q 45.015625 31 40.078125 35.4375 
Q 35.15625 39.890625 26.703125 39.890625 
Q 22.75 39.890625 18.8125 39.015625 
Q 14.890625 38.140625 10.796875 36.28125 
z
" id="DejaVuSans-53"/>
       </defs>
       <use xlink:href="#DejaVuSans-53"/>
      </g>
     </g>
    </g>
    <g id="xtick_3">
     <g id="line2d_4">
      <g>
       <use style="stroke:#000000;stroke-width:0.8;" x="102.96" xlink:href="#m532a281ea8" y="103.968"/>
      </g>
     </g>
     <g id="text_3">
      <!-- 10 -->
      <g transform="translate(96.5975 118.566437)scale(0.1 -0.1)">
       <defs>
        <path d="M 12.40625 8.296875 
L 28.515625 8.296875 
L 28.515625 63.921875 
L 10.984375 60.40625 
L 10.984375 69.390625 
L 28.421875 72.90625 
L 38.28125 72.90625 
L 38.28125 8.296875 
L 54.390625 8.296875 
L 54.390625 0 
L 12.40625 0 
z
" id="DejaVuSans-49"/>
       </defs>
       <use xlink:href="#DejaVuSans-49"/>
       <use x="63.623047" xlink:href="#DejaVuSans-48"/>
      </g>
     </g>
    </g>
    <g id="xtick_4">
     <g id="line2d_5">
      <g>
       <use style="stroke:#000000;stroke-width:0.8;" x="135" xlink:href="#m532a281ea8" y="103.968"/>
      </g>
     </g>
     <g id="text_4">
      <!-- 15 -->
      <g transform="translate(128.6375 118.566437)scale(0.1 -0.1)">
       <use xlink:href="#DejaVuSans-49"/>
       <use x="63.623047" xlink:href="#DejaVuSans-53"/>
      </g>
     </g>
    </g>
    <g id="xtick_5">
     <g id="line2d_6">
      <defs>
       <path d="M 0 0 
L 0 2 
" id="mb2912cb00f" style="stroke:#000000;stroke-width:0.6;"/>
      </defs>
      <g>
       <use style="stroke:#000000;stroke-width:0.6;" x="45.288" xlink:href="#mb2912cb00f" y="103.968"/>
      </g>
     </g>
    </g>
    <g id="xtick_6">
     <g id="line2d_7">
      <g>
       <use style="stroke:#000000;stroke-width:0.6;" x="51.696" xlink:href="#mb2912cb00f" y="103.968"/>
      </g>
     </g>
    </g>
    <g id="xtick_7">
     <g id="line2d_8">
      <g>
       <use style="stroke:#000000;stroke-width:0.6;" x="58.104" xlink:href="#mb2912cb00f" y="103.968"/>
      </g>
     </g>
    </g>
    <g id="xtick_8">
     <g id="line2d_9">
      <g>
       <use style="stroke:#000000;stroke-width:0.6;" x="64.512" xlink:href="#mb2912cb00f" y="103.968"/>
      </g>
     </g>
    </g>
    <g id="xtick_9">
     <g id="line2d_10">
      <g>
       <use style="stroke:#000000;stroke-width:0.6;" x="77.328" xlink:href="#mb2912cb00f" y="103.968"/>
      </g>
     </g>
    </g>
    <g id="xtick_10">
     <g id="line2d_11">
      <g>
       <use style="stroke:#000000;stroke-width:0.6;" x="83.736" xlink:href="#mb2912cb00f" y="103.968"/>
      </g>
     </g>
    </g>
    <g id="xtick_11">
     <g id="line2d_12">
      <g>
       <use style="stroke:#000000;stroke-width:0.6;" x="90.144" xlink:href="#mb2912cb00f" y="103.968"/>
      </g>
     </g>
    </g>
    <g id="xtick_12">
     <g id="line2d_13">
      <g>
       <use style="stroke:#000000;stroke-width:0.6;" x="96.552" xlink:href="#mb2912cb00f" y="103.968"/>
      </g>
     </g>
    </g>
    <g id="xtick_13">
     <g id="line2d_14">
      <g>
       <use style="stroke:#000000;stroke-width:0.6;" x="109.368" xlink:href="#mb2912cb00f" y="103.968"/>
      </g>
     </g>
    </g>
    <g id="xtick_14">
     <g id="line2d_15">
      <g>
       <use style="stroke:#000000;stroke-width:0.6;" x="115.776" xlink:href="#mb2912cb00f" y="103.968"/>
      </g>
     </g>
    </g>
    <g id="xtick_15">
     <g id="line2d_16">
      <g>
       <use style="stroke:#000000;stroke-width:0.6;" x="122.184" xlink:href="#mb2912cb00f" y="103.968"/>
      </g>
     </g>
    </g>
    <g id="xtick_16">
     <g id="line2d_17">
      <g>
       <use style="stroke:#000000;stroke-width:0.6;" x="128.592" xlink:href="#mb2912cb00f" y="103.968"/>
      </g>
     </g>
    </g>
    <g id="text_5">
     <!-- [K$^+$]$_o$ (mM) -->
     <g transform="translate(58.24 132.666438)scale(0.1 -0.1)">
      <defs>
       <path d="M 8.59375 75.984375 
L 29.296875 75.984375 
L 29.296875 69 
L 17.578125 69 
L 17.578125 -6.203125 
L 29.296875 -6.203125 
L 29.296875 -13.1875 
L 8.59375 -13.1875 
z
" id="DejaVuSans-91"/>
       <path d="M 9.8125 72.90625 
L 19.671875 72.90625 
L 19.671875 42.09375 
L 52.390625 72.90625 
L 65.09375 72.90625 
L 28.90625 38.921875 
L 67.671875 0 
L 54.6875 0 
L 19.671875 35.109375 
L 19.671875 0 
L 9.8125 0 
z
" id="DejaVuSans-75"/>
       <path d="M 46 62.703125 
L 46 35.5 
L 73.1875 35.5 
L 73.1875 27.203125 
L 46 27.203125 
L 46 0 
L 37.796875 0 
L 37.796875 27.203125 
L 10.59375 27.203125 
L 10.59375 35.5 
L 37.796875 35.5 
L 37.796875 62.703125 
z
" id="DejaVuSans-43"/>
       <path d="M 30.421875 75.984375 
L 30.421875 -13.1875 
L 9.71875 -13.1875 
L 9.71875 -6.203125 
L 21.390625 -6.203125 
L 21.390625 69 
L 9.71875 69 
L 9.71875 75.984375 
z
" id="DejaVuSans-93"/>
       <path d="M 30.609375 48.390625 
Q 23.390625 48.390625 19.1875 42.75 
Q 14.984375 37.109375 14.984375 27.296875 
Q 14.984375 17.484375 19.15625 11.84375 
Q 23.34375 6.203125 30.609375 6.203125 
Q 37.796875 6.203125 41.984375 11.859375 
Q 46.1875 17.53125 46.1875 27.296875 
Q 46.1875 37.015625 41.984375 42.703125 
Q 37.796875 48.390625 30.609375 48.390625 
z
M 30.609375 56 
Q 42.328125 56 49.015625 48.375 
Q 55.71875 40.765625 55.71875 27.296875 
Q 55.71875 13.875 49.015625 6.21875 
Q 42.328125 -1.421875 30.609375 -1.421875 
Q 18.84375 -1.421875 12.171875 6.21875 
Q 5.515625 13.875 5.515625 27.296875 
Q 5.515625 40.765625 12.171875 48.375 
Q 18.84375 56 30.609375 56 
z
" id="DejaVuSans-111"/>
       <path id="DejaVuSans-32"/>
       <path d="M 31 75.875 
Q 24.46875 64.65625 21.28125 53.65625 
Q 18.109375 42.671875 18.109375 31.390625 
Q 18.109375 20.125 21.3125 9.0625 
Q 24.515625 -2 31 -13.1875 
L 23.1875 -13.1875 
Q 15.875 -1.703125 12.234375 9.375 
Q 8.59375 20.453125 8.59375 31.390625 
Q 8.59375 42.28125 12.203125 53.3125 
Q 15.828125 64.359375 23.1875 75.875 
z
" id="DejaVuSans-40"/>
       <path d="M 52 44.1875 
Q 55.375 50.25 60.0625 53.125 
Q 64.75 56 71.09375 56 
Q 79.640625 56 84.28125 50.015625 
Q 88.921875 44.046875 88.921875 33.015625 
L 88.921875 0 
L 79.890625 0 
L 79.890625 32.71875 
Q 79.890625 40.578125 77.09375 44.375 
Q 74.3125 48.1875 68.609375 48.1875 
Q 61.625 48.1875 57.5625 43.546875 
Q 53.515625 38.921875 53.515625 30.90625 
L 53.515625 0 
L 44.484375 0 
L 44.484375 32.71875 
Q 44.484375 40.625 41.703125 44.40625 
Q 38.921875 48.1875 33.109375 48.1875 
Q 26.21875 48.1875 22.15625 43.53125 
Q 18.109375 38.875 18.109375 30.90625 
L 18.109375 0 
L 9.078125 0 
L 9.078125 54.6875 
L 18.109375 54.6875 
L 18.109375 46.1875 
Q 21.1875 51.21875 25.484375 53.609375 
Q 29.78125 56 35.6875 56 
Q 41.65625 56 45.828125 52.96875 
Q 50 49.953125 52 44.1875 
z
" id="DejaVuSans-109"/>
       <path d="M 9.8125 72.90625 
L 24.515625 72.90625 
L 43.109375 23.296875 
L 61.8125 72.90625 
L 76.515625 72.90625 
L 76.515625 0 
L 66.890625 0 
L 66.890625 64.015625 
L 48.09375 14.015625 
L 38.1875 14.015625 
L 19.390625 64.015625 
L 19.390625 0 
L 9.8125 0 
z
" id="DejaVuSans-77"/>
       <path d="M 8.015625 75.875 
L 15.828125 75.875 
Q 23.140625 64.359375 26.78125 53.3125 
Q 30.421875 42.28125 30.421875 31.390625 
Q 30.421875 20.453125 26.78125 9.375 
Q 23.140625 -1.703125 15.828125 -13.1875 
L 8.015625 -13.1875 
Q 14.5 -2 17.703125 9.0625 
Q 20.90625 20.125 20.90625 31.390625 
Q 20.90625 42.671875 17.703125 53.65625 
Q 14.5 64.65625 8.015625 75.875 
z
" id="DejaVuSans-41"/>
      </defs>
      <use transform="translate(0 0.826562)" xlink:href="#DejaVuSans-91"/>
      <use transform="translate(39.013672 0.826562)" xlink:href="#DejaVuSans-75"/>
      <use transform="translate(119.18457 39.107812)scale(0.7)" xlink:href="#DejaVuSans-43"/>
      <use transform="translate(194.208984 0.826562)" xlink:href="#DejaVuSans-93"/>
      <use transform="translate(234.179688 -15.579688)scale(0.7)" xlink:href="#DejaVuSans-111"/>
      <use transform="translate(279.741211 0.826562)" xlink:href="#DejaVuSans-32"/>
      <use transform="translate(311.52832 0.826562)" xlink:href="#DejaVuSans-40"/>
      <use transform="translate(350.541992 0.826562)" xlink:href="#DejaVuSans-109"/>
      <use transform="translate(447.954102 0.826562)" xlink:href="#DejaVuSans-77"/>
      <use transform="translate(534.233398 0.826562)" xlink:href="#DejaVuSans-41"/>
     </g>
    </g>
   </g>
   <g id="matplotlib.axis_2">
    <g id="ytick_1">
     <g id="line2d_18">
      <defs>
       <path d="M 0 0 
L -3.5 0 
" id="mdfa513fd06" style="stroke:#000000;stroke-width:0.8;"/>
      </defs>
      <g>
       <use style="stroke:#000000;stroke-width:0.8;" x="38.88" xlink:href="#mdfa513fd06" y="103.968"/>
      </g>
     </g>
     <g id="text_6">
      <!-- 0.0 -->
      <g transform="translate(15.976875 107.767219)scale(0.1 -0.1)">
       <defs>
        <path d="M 10.6875 12.40625 
L 21 12.40625 
L 21 0 
L 10.6875 0 
z
" id="DejaVuSans-46"/>
       </defs>
       <use xlink:href="#DejaVuSans-48"/>
       <use x="63.623047" xlink:href="#DejaVuSans-46"/>
       <use x="95.410156" xlink:href="#DejaVuSans-48"/>
      </g>
     </g>
    </g>
    <g id="ytick_2">
     <g id="line2d_19">
      <g>
       <use style="stroke:#000000;stroke-width:0.8;" x="38.88" xlink:href="#mdfa513fd06" y="67.813714"/>
      </g>
     </g>
     <g id="text_7">
      <!-- 0.1 -->
      <g transform="translate(15.976875 71.612933)scale(0.1 -0.1)">
       <use xlink:href="#DejaVuSans-48"/>
       <use x="63.623047" xlink:href="#DejaVuSans-46"/>
       <use x="95.410156" xlink:href="#DejaVuSans-49"/>
      </g>
     </g>
    </g>
    <g id="ytick_3">
     <g id="line2d_20">
      <g>
       <use style="stroke:#000000;stroke-width:0.8;" x="38.88" xlink:href="#mdfa513fd06" y="31.659429"/>
      </g>
     </g>
     <g id="text_8">
      <!-- 0.2 -->
      <g transform="translate(15.976875 35.458647)scale(0.1 -0.1)">
       <defs>
        <path d="M 19.1875 8.296875 
L 53.609375 8.296875 
L 53.609375 0 
L 7.328125 0 
L 7.328125 8.296875 
Q 12.9375 14.109375 22.625 23.890625 
Q 32.328125 33.6875 34.8125 36.53125 
Q 39.546875 41.84375 41.421875 45.53125 
Q 43.3125 49.21875 43.3125 52.78125 
Q 43.3125 58.59375 39.234375 62.25 
Q 35.15625 65.921875 28.609375 65.921875 
Q 23.96875 65.921875 18.8125 64.3125 
Q 13.671875 62.703125 7.8125 59.421875 
L 7.8125 69.390625 
Q 13.765625 71.78125 18.9375 73 
Q 24.125 74.21875 28.421875 74.21875 
Q 39.75 74.21875 46.484375 68.546875 
Q 53.21875 62.890625 53.21875 53.421875 
Q 53.21875 48.921875 51.53125 44.890625 
Q 49.859375 40.875 45.40625 35.40625 
Q 44.1875 33.984375 37.640625 27.21875 
Q 31.109375 20.453125 19.1875 8.296875 
z
" id="DejaVuSans-50"/>
       </defs>
       <use xlink:href="#DejaVuSans-48"/>
       <use x="63.623047" xlink:href="#DejaVuSans-46"/>
       <use x="95.410156" xlink:href="#DejaVuSans-50"/>
      </g>
     </g>
    </g>
    <g id="ytick_4">
     <g id="line2d_21">
      <defs>
       <path d="M 0 0 
L -2 0 
" id="m742aace07f" style="stroke:#000000;stroke-width:0.6;"/>
      </defs>
      <g>
       <use style="stroke:#000000;stroke-width:0.6;" x="38.88" xlink:href="#m742aace07f" y="96.737143"/>
      </g>
     </g>
    </g>
    <g id="ytick_5">
     <g id="line2d_22">
      <g>
       <use style="stroke:#000000;stroke-width:0.6;" x="38.88" xlink:href="#m742aace07f" y="89.506286"/>
      </g>
     </g>
    </g>
    <g id="ytick_6">
     <g id="line2d_23">
      <g>
       <use style="stroke:#000000;stroke-width:0.6;" x="38.88" xlink:href="#m742aace07f" y="82.275429"/>
      </g>
     </g>
    </g>
    <g id="ytick_7">
     <g id="line2d_24">
      <g>
       <use style="stroke:#000000;stroke-width:0.6;" x="38.88" xlink:href="#m742aace07f" y="75.044571"/>
      </g>
     </g>
    </g>
    <g id="ytick_8">
     <g id="line2d_25">
      <g>
       <use style="stroke:#000000;stroke-width:0.6;" x="38.88" xlink:href="#m742aace07f" y="60.582857"/>
      </g>
     </g>
    </g>
    <g id="ytick_9">
     <g id="line2d_26">
      <g>
       <use style="stroke:#000000;stroke-width:0.6;" x="38.88" xlink:href="#m742aace07f" y="53.352"/>
      </g>
     </g>
    </g>
    <g id="ytick_10">
     <g id="line2d_27">
      <g>
       <use style="stroke:#000000;stroke-width:0.6;" x="38.88" xlink:href="#m742aace07f" y="46.121143"/>
      </g>
     </g>
    </g>
    <g id="ytick_11">
     <g id="line2d_28">
      <g>
       <use style="stroke:#000000;stroke-width:0.6;" x="38.88" xlink:href="#m742aace07f" y="38.890286"/>
      </g>
     </g>
    </g>
    <g id="ytick_12">
     <g id="line2d_29">
      <g>
       <use style="stroke:#000000;stroke-width:0.6;" x="38.88" xlink:href="#m742aace07f" y="24.428571"/>
      </g>
     </g>
    </g>
    <g id="ytick_13">
     <g id="line2d_30">
      <g>
       <use style="stroke:#000000;stroke-width:0.6;" x="38.88" xlink:href="#m742aace07f" y="17.197714"/>
      </g>
     </g>
    </g>
    <g id="ytick_14">
     <g id="line2d_31">
      <g>
       <use style="stroke:#000000;stroke-width:0.6;" x="38.88" xlink:href="#m742aace07f" y="9.966857"/>
      </g>
     </g>
    </g>
    <g id="ytick_15">
     <g id="line2d_32">
      <g>
       <use style="stroke:#000000;stroke-width:0.6;" x="38.88" xlink:href="#m742aace07f" y="2.736"/>
      </g>
     </g>
    </g>
    <g id="text_9">
     <!-- $I_{NaK}$ (A/F) -->
     <g transform="translate(9.897187 75.552)rotate(-90)scale(0.1 -0.1)">
      <defs>
       <path d="M 9.8125 72.90625 
L 19.671875 72.90625 
L 19.671875 0 
L 9.8125 0 
z
" id="DejaVuSans-73"/>
       <path d="M 9.8125 72.90625 
L 23.09375 72.90625 
L 55.421875 11.921875 
L 55.421875 72.90625 
L 64.984375 72.90625 
L 64.984375 0 
L 51.703125 0 
L 19.390625 60.984375 
L 19.390625 0 
L 9.8125 0 
z
" id="DejaVuSans-78"/>
       <path d="M 34.28125 27.484375 
Q 23.390625 27.484375 19.1875 25 
Q 14.984375 22.515625 14.984375 16.5 
Q 14.984375 11.71875 18.140625 8.90625 
Q 21.296875 6.109375 26.703125 6.109375 
Q 34.1875 6.109375 38.703125 11.40625 
Q 43.21875 16.703125 43.21875 25.484375 
L 43.21875 27.484375 
z
M 52.203125 31.203125 
L 52.203125 0 
L 43.21875 0 
L 43.21875 8.296875 
Q 40.140625 3.328125 35.546875 0.953125 
Q 30.953125 -1.421875 24.3125 -1.421875 
Q 15.921875 -1.421875 10.953125 3.296875 
Q 6 8.015625 6 15.921875 
Q 6 25.140625 12.171875 29.828125 
Q 18.359375 34.515625 30.609375 34.515625 
L 43.21875 34.515625 
L 43.21875 35.40625 
Q 43.21875 41.609375 39.140625 45 
Q 35.0625 48.390625 27.6875 48.390625 
Q 23 48.390625 18.546875 47.265625 
Q 14.109375 46.140625 10.015625 43.890625 
L 10.015625 52.203125 
Q 14.9375 54.109375 19.578125 55.046875 
Q 24.21875 56 28.609375 56 
Q 40.484375 56 46.34375 49.84375 
Q 52.203125 43.703125 52.203125 31.203125 
z
" id="DejaVuSans-97"/>
       <path d="M 34.1875 63.1875 
L 20.796875 26.90625 
L 47.609375 26.90625 
z
M 28.609375 72.90625 
L 39.796875 72.90625 
L 67.578125 0 
L 57.328125 0 
L 50.6875 18.703125 
L 17.828125 18.703125 
L 11.1875 0 
L 0.78125 0 
z
" id="DejaVuSans-65"/>
       <path d="M 25.390625 72.90625 
L 33.6875 72.90625 
L 8.296875 -9.28125 
L 0 -9.28125 
z
" id="DejaVuSans-47"/>
       <path d="M 9.8125 72.90625 
L 51.703125 72.90625 
L 51.703125 64.59375 
L 19.671875 64.59375 
L 19.671875 43.109375 
L 48.578125 43.109375 
L 48.578125 34.8125 
L 19.671875 34.8125 
L 19.671875 0 
L 9.8125 0 
z
" id="DejaVuSans-70"/>
      </defs>
      <use transform="translate(0 0.125)" xlink:href="#DejaVuSans-73"/>
      <use transform="translate(30.449219 -16.28125)scale(0.7)" xlink:href="#DejaVuSans-78"/>
      <use transform="translate(82.8125 -16.28125)scale(0.7)" xlink:href="#DejaVuSans-97"/>
      <use transform="translate(125.708008 -16.28125)scale(0.7)" xlink:href="#DejaVuSans-75"/>
      <use transform="translate(174.345703 0.125)" xlink:href="#DejaVuSans-32"/>
      <use transform="translate(206.132812 0.125)" xlink:href="#DejaVuSans-40"/>
      <use transform="translate(245.146484 0.125)" xlink:href="#DejaVuSans-65"/>
      <use transform="translate(313.554688 0.125)" xlink:href="#DejaVuSans-47"/>
      <use transform="translate(347.246094 0.125)" xlink:href="#DejaVuSans-70"/>
      <use transform="translate(404.765625 0.125)" xlink:href="#DejaVuSans-41"/>
     </g>
    </g>
   </g>
   <g id="line2d_33">
    <path clip-path="url(#p385c8db894)" d="M 38.88 103.968 
L 39.850909 95.831175 
L 40.821818 89.061884 
L 41.792727 83.342095 
L 42.763636 78.445297 
L 43.734545 74.205788 
L 44.705455 70.49955 
L 45.676364 67.23192 
L 46.647273 64.329389 
L 47.618182 61.734003 
L 48.589091 59.399461 
L 49.56 57.288319 
L 50.530909 55.369976 
L 51.501818 53.619174 
L 52.472727 52.014883 
L 53.443636 50.53945 
L 54.414545 49.17795 
L 55.385455 47.917677 
L 56.356364 46.747746 
L 57.327273 45.65878 
L 58.298182 44.642653 
L 59.269091 43.692296 
L 60.24 42.801522 
L 61.210909 41.964898 
L 62.181818 41.177633 
L 63.152727 40.435483 
L 64.123636 39.734679 
L 65.094545 39.071859 
L 66.065455 38.444016 
L 67.036364 37.848452 
L 68.007273 37.282742 
L 68.978182 36.744695 
L 69.949091 36.23233 
L 70.92 35.743851 
L 71.890909 35.277627 
L 72.861818 34.83217 
L 73.832727 34.406123 
L 74.803636 33.998244 
L 75.774545 33.607396 
L 76.745455 33.232533 
L 77.716364 32.872695 
L 78.687273 32.526996 
L 79.658182 32.194618 
L 80.629091 31.874807 
L 81.6 31.566863 
L 82.570909 31.270137 
L 83.541818 30.984027 
L 84.512727 30.707974 
L 85.483636 30.441456 
L 86.454545 30.183989 
L 87.425455 29.935118 
L 88.396364 29.69442 
L 89.367273 29.461499 
L 90.338182 29.235984 
L 91.309091 29.017527 
L 92.28 28.805802 
L 93.250909 28.600504 
L 94.221818 28.401342 
L 95.192727 28.208047 
L 96.163636 28.020363 
L 97.134545 27.838049 
L 98.105455 27.660878 
L 99.076364 27.488635 
L 100.047273 27.321117 
L 101.018182 27.158133 
L 101.989091 26.999501 
L 102.96 26.845049 
L 103.930909 26.694615 
L 104.901818 26.548042 
L 105.872727 26.405185 
L 106.843636 26.265903 
L 107.814545 26.130065 
L 108.785455 25.997545 
L 109.756364 25.868221 
L 110.727273 25.74198 
L 111.698182 25.618713 
L 112.669091 25.498316 
L 113.64 25.38069 
L 114.610909 25.26574 
L 115.581818 25.153376 
L 116.552727 25.043512 
L 117.523636 24.936066 
L 118.494545 24.830957 
L 119.465455 24.728112 
L 120.436364 24.627457 
L 121.407273 24.528923 
L 122.378182 24.432444 
L 123.349091 24.337957 
L 124.32 24.245399 
L 125.290909 24.154714 
L 126.261818 24.065844 
L 127.232727 23.978736 
L 128.203636 23.893337 
L 129.174545 23.809598 
L 130.145455 23.727471 
L 131.116364 23.64691 
L 132.087273 23.56787 
L 133.058182 23.490309 
L 134.029091 23.414186 
L 135 23.339461 
" style="fill:none;stroke:#1f77b4;stroke-linecap:square;stroke-width:1.5;"/>
   </g>
   <g id="patch_3">
    <path d="M 38.88 103.968 
L 38.88 2.736 
" style="fill:none;stroke:#000000;stroke-linecap:square;stroke-linejoin:miter;stroke-width:0.8;"/>
   </g>
   <g id="patch_4">
    <path d="M 38.88 103.968 
L 135 103.968 
" style="fill:none;stroke:#000000;stroke-linecap:square;stroke-linejoin:miter;stroke-width:0.8;"/>
   </g>
  </g>
  <g id="axes_2">
   <g id="patch_5">
    <path d="M 183.06 103.968 
L 279.18 103.968 
L 279.18 2.736 
L 183.06 2.736 
z
" style="fill:#ffffff;"/>
   </g>
   <g id="line2d_34">
    <path clip-path="url(#pee8ef62aa2)" d="M 228.145058 103.968 
L 228.145058 2.736 
" style="fill:none;stroke:#cccccc;stroke-linecap:square;stroke-width:1.5;"/>
   </g>
   <g id="matplotlib.axis_3">
    <g id="xtick_17">
     <g id="line2d_35">
      <g>
       <use style="stroke:#000000;stroke-width:0.8;" x="183.06" xlink:href="#m532a281ea8" y="103.968"/>
      </g>
     </g>
     <g id="text_10">
      <!-- 0 -->
      <g transform="translate(179.87875 118.566437)scale(0.1 -0.1)">
       <use xlink:href="#DejaVuSans-48"/>
      </g>
     </g>
    </g>
    <g id="xtick_18">
     <g id="line2d_36">
      <g>
       <use style="stroke:#000000;stroke-width:0.8;" x="231.12" xlink:href="#m532a281ea8" y="103.968"/>
      </g>
     </g>
     <g id="text_11">
      <!-- 10 -->
      <g transform="translate(224.7575 118.566437)scale(0.1 -0.1)">
       <use xlink:href="#DejaVuSans-49"/>
       <use x="63.623047" xlink:href="#DejaVuSans-48"/>
      </g>
     </g>
    </g>
    <g id="xtick_19">
     <g id="line2d_37">
      <g>
       <use style="stroke:#000000;stroke-width:0.8;" x="279.18" xlink:href="#m532a281ea8" y="103.968"/>
      </g>
     </g>
     <g id="text_12">
      <!-- 20 -->
      <g transform="translate(272.8175 118.566437)scale(0.1 -0.1)">
       <use xlink:href="#DejaVuSans-50"/>
       <use x="63.623047" xlink:href="#DejaVuSans-48"/>
      </g>
     </g>
    </g>
    <g id="xtick_20">
     <g id="line2d_38">
      <g>
       <use style="stroke:#000000;stroke-width:0.6;" x="192.672" xlink:href="#mb2912cb00f" y="103.968"/>
      </g>
     </g>
    </g>
    <g id="xtick_21">
     <g id="line2d_39">
      <g>
       <use style="stroke:#000000;stroke-width:0.6;" x="202.284" xlink:href="#mb2912cb00f" y="103.968"/>
      </g>
     </g>
    </g>
    <g id="xtick_22">
     <g id="line2d_40">
      <g>
       <use style="stroke:#000000;stroke-width:0.6;" x="211.896" xlink:href="#mb2912cb00f" y="103.968"/>
      </g>
     </g>
    </g>
    <g id="xtick_23">
     <g id="line2d_41">
      <g>
       <use style="stroke:#000000;stroke-width:0.6;" x="221.508" xlink:href="#mb2912cb00f" y="103.968"/>
      </g>
     </g>
    </g>
    <g id="xtick_24">
     <g id="line2d_42">
      <g>
       <use style="stroke:#000000;stroke-width:0.6;" x="240.732" xlink:href="#mb2912cb00f" y="103.968"/>
      </g>
     </g>
    </g>
    <g id="xtick_25">
     <g id="line2d_43">
      <g>
       <use style="stroke:#000000;stroke-width:0.6;" x="250.344" xlink:href="#mb2912cb00f" y="103.968"/>
      </g>
     </g>
    </g>
    <g id="xtick_26">
     <g id="line2d_44">
      <g>
       <use style="stroke:#000000;stroke-width:0.6;" x="259.956" xlink:href="#mb2912cb00f" y="103.968"/>
      </g>
     </g>
    </g>
    <g id="xtick_27">
     <g id="line2d_45">
      <g>
       <use style="stroke:#000000;stroke-width:0.6;" x="269.568" xlink:href="#mb2912cb00f" y="103.968"/>
      </g>
     </g>
    </g>
    <g id="text_13">
     <!-- [Na$^+$]$_i$ (mM) -->
     <g transform="translate(200.07 132.566437)scale(0.1 -0.1)">
      <defs>
       <path d="M 9.421875 54.6875 
L 18.40625 54.6875 
L 18.40625 0 
L 9.421875 0 
z
M 9.421875 75.984375 
L 18.40625 75.984375 
L 18.40625 64.59375 
L 9.421875 64.59375 
z
" id="DejaVuSans-105"/>
      </defs>
      <use transform="translate(0 0.826562)" xlink:href="#DejaVuSans-91"/>
      <use transform="translate(39.013672 0.826562)" xlink:href="#DejaVuSans-78"/>
      <use transform="translate(113.818359 0.826562)" xlink:href="#DejaVuSans-97"/>
      <use transform="translate(189.692383 39.107812)scale(0.7)" xlink:href="#DejaVuSans-43"/>
      <use transform="translate(264.716797 0.826562)" xlink:href="#DejaVuSans-93"/>
      <use transform="translate(304.6875 -15.579688)scale(0.7)" xlink:href="#DejaVuSans-105"/>
      <use transform="translate(326.870117 0.826562)" xlink:href="#DejaVuSans-32"/>
      <use transform="translate(358.657227 0.826562)" xlink:href="#DejaVuSans-40"/>
      <use transform="translate(397.670898 0.826562)" xlink:href="#DejaVuSans-109"/>
      <use transform="translate(495.083008 0.826562)" xlink:href="#DejaVuSans-77"/>
      <use transform="translate(581.362305 0.826562)" xlink:href="#DejaVuSans-41"/>
     </g>
    </g>
   </g>
   <g id="matplotlib.axis_4">
    <g id="ytick_16">
     <g id="line2d_46">
      <g>
       <use style="stroke:#000000;stroke-width:0.8;" x="183.06" xlink:href="#mdfa513fd06" y="103.968"/>
      </g>
     </g>
     <g id="text_14">
      <!-- 0.0 -->
      <g transform="translate(160.156875 107.767219)scale(0.1 -0.1)">
       <use xlink:href="#DejaVuSans-48"/>
       <use x="63.623047" xlink:href="#DejaVuSans-46"/>
       <use x="95.410156" xlink:href="#DejaVuSans-48"/>
      </g>
     </g>
    </g>
    <g id="ytick_17">
     <g id="line2d_47">
      <g>
       <use style="stroke:#000000;stroke-width:0.8;" x="183.06" xlink:href="#mdfa513fd06" y="67.813714"/>
      </g>
     </g>
     <g id="text_15">
      <!-- 0.1 -->
      <g transform="translate(160.156875 71.612933)scale(0.1 -0.1)">
       <use xlink:href="#DejaVuSans-48"/>
       <use x="63.623047" xlink:href="#DejaVuSans-46"/>
       <use x="95.410156" xlink:href="#DejaVuSans-49"/>
      </g>
     </g>
    </g>
    <g id="ytick_18">
     <g id="line2d_48">
      <g>
       <use style="stroke:#000000;stroke-width:0.8;" x="183.06" xlink:href="#mdfa513fd06" y="31.659429"/>
      </g>
     </g>
     <g id="text_16">
      <!-- 0.2 -->
      <g transform="translate(160.156875 35.458647)scale(0.1 -0.1)">
       <use xlink:href="#DejaVuSans-48"/>
       <use x="63.623047" xlink:href="#DejaVuSans-46"/>
       <use x="95.410156" xlink:href="#DejaVuSans-50"/>
      </g>
     </g>
    </g>
    <g id="ytick_19">
     <g id="line2d_49">
      <g>
       <use style="stroke:#000000;stroke-width:0.6;" x="183.06" xlink:href="#m742aace07f" y="96.737143"/>
      </g>
     </g>
    </g>
    <g id="ytick_20">
     <g id="line2d_50">
      <g>
       <use style="stroke:#000000;stroke-width:0.6;" x="183.06" xlink:href="#m742aace07f" y="89.506286"/>
      </g>
     </g>
    </g>
    <g id="ytick_21">
     <g id="line2d_51">
      <g>
       <use style="stroke:#000000;stroke-width:0.6;" x="183.06" xlink:href="#m742aace07f" y="82.275429"/>
      </g>
     </g>
    </g>
    <g id="ytick_22">
     <g id="line2d_52">
      <g>
       <use style="stroke:#000000;stroke-width:0.6;" x="183.06" xlink:href="#m742aace07f" y="75.044571"/>
      </g>
     </g>
    </g>
    <g id="ytick_23">
     <g id="line2d_53">
      <g>
       <use style="stroke:#000000;stroke-width:0.6;" x="183.06" xlink:href="#m742aace07f" y="60.582857"/>
      </g>
     </g>
    </g>
    <g id="ytick_24">
     <g id="line2d_54">
      <g>
       <use style="stroke:#000000;stroke-width:0.6;" x="183.06" xlink:href="#m742aace07f" y="53.352"/>
      </g>
     </g>
    </g>
    <g id="ytick_25">
     <g id="line2d_55">
      <g>
       <use style="stroke:#000000;stroke-width:0.6;" x="183.06" xlink:href="#m742aace07f" y="46.121143"/>
      </g>
     </g>
    </g>
    <g id="ytick_26">
     <g id="line2d_56">
      <g>
       <use style="stroke:#000000;stroke-width:0.6;" x="183.06" xlink:href="#m742aace07f" y="38.890286"/>
      </g>
     </g>
    </g>
    <g id="ytick_27">
     <g id="line2d_57">
      <g>
       <use style="stroke:#000000;stroke-width:0.6;" x="183.06" xlink:href="#m742aace07f" y="24.428571"/>
      </g>
     </g>
    </g>
    <g id="ytick_28">
     <g id="line2d_58">
      <g>
       <use style="stroke:#000000;stroke-width:0.6;" x="183.06" xlink:href="#m742aace07f" y="17.197714"/>
      </g>
     </g>
    </g>
    <g id="ytick_29">
     <g id="line2d_59">
      <g>
       <use style="stroke:#000000;stroke-width:0.6;" x="183.06" xlink:href="#m742aace07f" y="9.966857"/>
      </g>
     </g>
    </g>
    <g id="ytick_30">
     <g id="line2d_60">
      <g>
       <use style="stroke:#000000;stroke-width:0.6;" x="183.06" xlink:href="#m742aace07f" y="2.736"/>
      </g>
     </g>
    </g>
    <g id="text_17">
     <!-- $I_{NaK}$ (A/F) -->
     <g transform="translate(154.077187 75.552)rotate(-90)scale(0.1 -0.1)">
      <use transform="translate(0 0.125)" xlink:href="#DejaVuSans-73"/>
      <use transform="translate(30.449219 -16.28125)scale(0.7)" xlink:href="#DejaVuSans-78"/>
      <use transform="translate(82.8125 -16.28125)scale(0.7)" xlink:href="#DejaVuSans-97"/>
      <use transform="translate(125.708008 -16.28125)scale(0.7)" xlink:href="#DejaVuSans-75"/>
      <use transform="translate(174.345703 0.125)" xlink:href="#DejaVuSans-32"/>
      <use transform="translate(206.132812 0.125)" xlink:href="#DejaVuSans-40"/>
      <use transform="translate(245.146484 0.125)" xlink:href="#DejaVuSans-65"/>
      <use transform="translate(313.554688 0.125)" xlink:href="#DejaVuSans-47"/>
      <use transform="translate(347.246094 0.125)" xlink:href="#DejaVuSans-70"/>
      <use transform="translate(404.765625 0.125)" xlink:href="#DejaVuSans-41"/>
     </g>
    </g>
   </g>
   <g id="line2d_61">
    <path clip-path="url(#pee8ef62aa2)" d="M 183.06 42.190619 
L 184.030909 42.190616 
L 185.001818 42.190578 
L 185.972727 42.190415 
L 186.943636 42.189976 
L 187.914545 42.189049 
L 188.885455 42.187365 
L 189.856364 42.184591 
L 190.827273 42.180338 
L 191.798182 42.174156 
L 192.769091 42.165537 
L 193.74 42.153916 
L 194.710909 42.138673 
L 195.681818 42.119135 
L 196.652727 42.094577 
L 197.623636 42.064228 
L 198.594545 42.027277 
L 199.565455 41.982873 
L 200.536364 41.930137 
L 201.507273 41.868166 
L 202.478182 41.796044 
L 203.449091 41.712851 
L 204.42 41.617676 
L 205.390909 41.509624 
L 206.361818 41.387836 
L 207.332727 41.251501 
L 208.303636 41.099867 
L 209.274545 40.932261 
L 210.245455 40.7481 
L 211.216364 40.54691 
L 212.187273 40.328334 
L 213.158182 40.09215 
L 214.129091 39.838279 
L 215.1 39.566792 
L 216.070909 39.277919 
L 217.041818 38.972049 
L 218.012727 38.649734 
L 218.983636 38.311682 
L 219.954545 37.958749 
L 220.925455 37.591936 
L 221.896364 37.212368 
L 222.867273 36.821284 
L 223.838182 36.420018 
L 224.809091 36.009977 
L 225.78 35.592624 
L 226.750909 35.169457 
L 227.721818 34.741985 
L 228.692727 34.31171 
L 229.663636 33.880109 
L 230.634545 33.448612 
L 231.605455 33.018592 
L 232.576364 32.591347 
L 233.547273 32.168093 
L 234.518182 31.749953 
L 235.489091 31.337948 
L 236.46 30.932999 
L 237.430909 30.535921 
L 238.401818 30.147424 
L 239.372727 29.768115 
L 240.343636 29.398502 
L 241.314545 29.038995 
L 242.285455 28.689916 
L 243.256364 28.351501 
L 244.227273 28.023909 
L 245.198182 27.707228 
L 246.169091 27.401481 
L 247.14 27.106635 
L 248.110909 26.822605 
L 249.081818 26.549261 
L 250.052727 26.286436 
L 251.023636 26.033932 
L 251.994545 25.791521 
L 252.965455 25.558954 
L 253.936364 25.335963 
L 254.907273 25.12227 
L 255.878182 24.917581 
L 256.849091 24.7216 
L 257.82 24.534024 
L 258.790909 24.354548 
L 259.761818 24.18287 
L 260.732727 24.018687 
L 261.703636 23.861702 
L 262.674545 23.711621 
L 263.645455 23.568157 
L 264.616364 23.43103 
L 265.587273 23.299967 
L 266.558182 23.174704 
L 267.529091 23.054983 
L 268.5 22.940558 
L 269.470909 22.831189 
L 270.441818 22.726646 
L 271.412727 22.626709 
L 272.383636 22.531165 
L 273.354545 22.439811 
L 274.325455 22.352452 
L 275.296364 22.268902 
L 276.267273 22.188982 
L 277.238182 22.112524 
L 278.209091 22.039363 
L 279.18 21.969347 
" style="fill:none;stroke:#1f77b4;stroke-linecap:square;stroke-width:1.5;"/>
   </g>
   <g id="patch_6">
    <path d="M 183.06 103.968 
L 183.06 2.736 
" style="fill:none;stroke:#000000;stroke-linecap:square;stroke-linejoin:miter;stroke-width:0.8;"/>
   </g>
   <g id="patch_7">
    <path d="M 183.06 103.968 
L 279.18 103.968 
" style="fill:none;stroke:#000000;stroke-linecap:square;stroke-linejoin:miter;stroke-width:0.8;"/>
   </g>
  </g>
  <g id="axes_3">
   <g id="patch_8">
    <path d="M 327.24 103.968 
L 423.36 103.968 
L 423.36 2.736 
L 327.24 2.736 
z
" style="fill:#ffffff;"/>
   </g>
   <g id="line2d_62">
    <path clip-path="url(#p51fdaef2c3)" d="M 366.844568 103.968 
L 366.844568 2.736 
" style="fill:none;stroke:#cccccc;stroke-linecap:square;stroke-width:1.5;"/>
   </g>
   <g id="matplotlib.axis_5">
    <g id="xtick_28">
     <g id="line2d_63">
      <g>
       <use style="stroke:#000000;stroke-width:0.8;" x="327.24" xlink:href="#m532a281ea8" y="103.968"/>
      </g>
     </g>
     <g id="text_18">
      <!-- −100 -->
      <g transform="translate(313.506406 118.566437)scale(0.1 -0.1)">
       <defs>
        <path d="M 10.59375 35.5 
L 73.1875 35.5 
L 73.1875 27.203125 
L 10.59375 27.203125 
z
" id="DejaVuSans-8722"/>
       </defs>
       <use xlink:href="#DejaVuSans-8722"/>
       <use x="83.789062" xlink:href="#DejaVuSans-49"/>
       <use x="147.412109" xlink:href="#DejaVuSans-48"/>
       <use x="211.035156" xlink:href="#DejaVuSans-48"/>
      </g>
     </g>
    </g>
    <g id="xtick_29">
     <g id="line2d_64">
      <g>
       <use style="stroke:#000000;stroke-width:0.8;" x="359.28" xlink:href="#m532a281ea8" y="103.968"/>
      </g>
     </g>
     <g id="text_19">
      <!-- −80 -->
      <g transform="translate(348.727656 118.566437)scale(0.1 -0.1)">
       <defs>
        <path d="M 31.78125 34.625 
Q 24.75 34.625 20.71875 30.859375 
Q 16.703125 27.09375 16.703125 20.515625 
Q 16.703125 13.921875 20.71875 10.15625 
Q 24.75 6.390625 31.78125 6.390625 
Q 38.8125 6.390625 42.859375 10.171875 
Q 46.921875 13.96875 46.921875 20.515625 
Q 46.921875 27.09375 42.890625 30.859375 
Q 38.875 34.625 31.78125 34.625 
z
M 21.921875 38.8125 
Q 15.578125 40.375 12.03125 44.71875 
Q 8.5 49.078125 8.5 55.328125 
Q 8.5 64.0625 14.71875 69.140625 
Q 20.953125 74.21875 31.78125 74.21875 
Q 42.671875 74.21875 48.875 69.140625 
Q 55.078125 64.0625 55.078125 55.328125 
Q 55.078125 49.078125 51.53125 44.71875 
Q 48 40.375 41.703125 38.8125 
Q 48.828125 37.15625 52.796875 32.3125 
Q 56.78125 27.484375 56.78125 20.515625 
Q 56.78125 9.90625 50.3125 4.234375 
Q 43.84375 -1.421875 31.78125 -1.421875 
Q 19.734375 -1.421875 13.25 4.234375 
Q 6.78125 9.90625 6.78125 20.515625 
Q 6.78125 27.484375 10.78125 32.3125 
Q 14.796875 37.15625 21.921875 38.8125 
z
M 18.3125 54.390625 
Q 18.3125 48.734375 21.84375 45.5625 
Q 25.390625 42.390625 31.78125 42.390625 
Q 38.140625 42.390625 41.71875 45.5625 
Q 45.3125 48.734375 45.3125 54.390625 
Q 45.3125 60.0625 41.71875 63.234375 
Q 38.140625 66.40625 31.78125 66.40625 
Q 25.390625 66.40625 21.84375 63.234375 
Q 18.3125 60.0625 18.3125 54.390625 
z
" id="DejaVuSans-56"/>
       </defs>
       <use xlink:href="#DejaVuSans-8722"/>
       <use x="83.789062" xlink:href="#DejaVuSans-56"/>
       <use x="147.412109" xlink:href="#DejaVuSans-48"/>
      </g>
     </g>
    </g>
    <g id="xtick_30">
     <g id="line2d_65">
      <g>
       <use style="stroke:#000000;stroke-width:0.8;" x="391.32" xlink:href="#m532a281ea8" y="103.968"/>
      </g>
     </g>
     <g id="text_20">
      <!-- −60 -->
      <g transform="translate(380.767656 118.566437)scale(0.1 -0.1)">
       <defs>
        <path d="M 33.015625 40.375 
Q 26.375 40.375 22.484375 35.828125 
Q 18.609375 31.296875 18.609375 23.390625 
Q 18.609375 15.53125 22.484375 10.953125 
Q 26.375 6.390625 33.015625 6.390625 
Q 39.65625 6.390625 43.53125 10.953125 
Q 47.40625 15.53125 47.40625 23.390625 
Q 47.40625 31.296875 43.53125 35.828125 
Q 39.65625 40.375 33.015625 40.375 
z
M 52.59375 71.296875 
L 52.59375 62.3125 
Q 48.875 64.0625 45.09375 64.984375 
Q 41.3125 65.921875 37.59375 65.921875 
Q 27.828125 65.921875 22.671875 59.328125 
Q 17.53125 52.734375 16.796875 39.40625 
Q 19.671875 43.65625 24.015625 45.921875 
Q 28.375 48.1875 33.59375 48.1875 
Q 44.578125 48.1875 50.953125 41.515625 
Q 57.328125 34.859375 57.328125 23.390625 
Q 57.328125 12.15625 50.6875 5.359375 
Q 44.046875 -1.421875 33.015625 -1.421875 
Q 20.359375 -1.421875 13.671875 8.265625 
Q 6.984375 17.96875 6.984375 36.375 
Q 6.984375 53.65625 15.1875 63.9375 
Q 23.390625 74.21875 37.203125 74.21875 
Q 40.921875 74.21875 44.703125 73.484375 
Q 48.484375 72.75 52.59375 71.296875 
z
" id="DejaVuSans-54"/>
       </defs>
       <use xlink:href="#DejaVuSans-8722"/>
       <use x="83.789062" xlink:href="#DejaVuSans-54"/>
       <use x="147.412109" xlink:href="#DejaVuSans-48"/>
      </g>
     </g>
    </g>
    <g id="xtick_31">
     <g id="line2d_66">
      <g>
       <use style="stroke:#000000;stroke-width:0.8;" x="423.36" xlink:href="#m532a281ea8" y="103.968"/>
      </g>
     </g>
     <g id="text_21">
      <!-- −40 -->
      <g transform="translate(412.807656 118.566437)scale(0.1 -0.1)">
       <defs>
        <path d="M 37.796875 64.3125 
L 12.890625 25.390625 
L 37.796875 25.390625 
z
M 35.203125 72.90625 
L 47.609375 72.90625 
L 47.609375 25.390625 
L 58.015625 25.390625 
L 58.015625 17.1875 
L 47.609375 17.1875 
L 47.609375 0 
L 37.796875 0 
L 37.796875 17.1875 
L 4.890625 17.1875 
L 4.890625 26.703125 
z
" id="DejaVuSans-52"/>
       </defs>
       <use xlink:href="#DejaVuSans-8722"/>
       <use x="83.789062" xlink:href="#DejaVuSans-52"/>
       <use x="147.412109" xlink:href="#DejaVuSans-48"/>
      </g>
     </g>
    </g>
    <g id="xtick_32">
     <g id="line2d_67">
      <g>
       <use style="stroke:#000000;stroke-width:0.6;" x="335.25" xlink:href="#mb2912cb00f" y="103.968"/>
      </g>
     </g>
    </g>
    <g id="xtick_33">
     <g id="line2d_68">
      <g>
       <use style="stroke:#000000;stroke-width:0.6;" x="343.26" xlink:href="#mb2912cb00f" y="103.968"/>
      </g>
     </g>
    </g>
    <g id="xtick_34">
     <g id="line2d_69">
      <g>
       <use style="stroke:#000000;stroke-width:0.6;" x="351.27" xlink:href="#mb2912cb00f" y="103.968"/>
      </g>
     </g>
    </g>
    <g id="xtick_35">
     <g id="line2d_70">
      <g>
       <use style="stroke:#000000;stroke-width:0.6;" x="367.29" xlink:href="#mb2912cb00f" y="103.968"/>
      </g>
     </g>
    </g>
    <g id="xtick_36">
     <g id="line2d_71">
      <g>
       <use style="stroke:#000000;stroke-width:0.6;" x="375.3" xlink:href="#mb2912cb00f" y="103.968"/>
      </g>
     </g>
    </g>
    <g id="xtick_37">
     <g id="line2d_72">
      <g>
       <use style="stroke:#000000;stroke-width:0.6;" x="383.31" xlink:href="#mb2912cb00f" y="103.968"/>
      </g>
     </g>
    </g>
    <g id="xtick_38">
     <g id="line2d_73">
      <g>
       <use style="stroke:#000000;stroke-width:0.6;" x="399.33" xlink:href="#mb2912cb00f" y="103.968"/>
      </g>
     </g>
    </g>
    <g id="xtick_39">
     <g id="line2d_74">
      <g>
       <use style="stroke:#000000;stroke-width:0.6;" x="407.34" xlink:href="#mb2912cb00f" y="103.968"/>
      </g>
     </g>
    </g>
    <g id="xtick_40">
     <g id="line2d_75">
      <g>
       <use style="stroke:#000000;stroke-width:0.6;" x="415.35" xlink:href="#mb2912cb00f" y="103.968"/>
      </g>
     </g>
    </g>
    <g id="text_22">
     <!-- V (mV) -->
     <g transform="translate(358.098437 132.244563)scale(0.1 -0.1)">
      <defs>
       <path d="M 28.609375 0 
L 0.78125 72.90625 
L 11.078125 72.90625 
L 34.1875 11.53125 
L 57.328125 72.90625 
L 67.578125 72.90625 
L 39.796875 0 
z
" id="DejaVuSans-86"/>
      </defs>
      <use xlink:href="#DejaVuSans-86"/>
      <use x="68.408203" xlink:href="#DejaVuSans-32"/>
      <use x="100.195312" xlink:href="#DejaVuSans-40"/>
      <use x="139.208984" xlink:href="#DejaVuSans-109"/>
      <use x="236.621094" xlink:href="#DejaVuSans-86"/>
      <use x="305.029297" xlink:href="#DejaVuSans-41"/>
     </g>
    </g>
   </g>
   <g id="matplotlib.axis_6">
    <g id="ytick_31">
     <g id="line2d_76">
      <g>
       <use style="stroke:#000000;stroke-width:0.8;" x="327.24" xlink:href="#mdfa513fd06" y="103.968"/>
      </g>
     </g>
     <g id="text_23">
      <!-- 0.0 -->
      <g transform="translate(304.336875 107.767219)scale(0.1 -0.1)">
       <use xlink:href="#DejaVuSans-48"/>
       <use x="63.623047" xlink:href="#DejaVuSans-46"/>
       <use x="95.410156" xlink:href="#DejaVuSans-48"/>
      </g>
     </g>
    </g>
    <g id="ytick_32">
     <g id="line2d_77">
      <g>
       <use style="stroke:#000000;stroke-width:0.8;" x="327.24" xlink:href="#mdfa513fd06" y="67.813714"/>
      </g>
     </g>
     <g id="text_24">
      <!-- 0.1 -->
      <g transform="translate(304.336875 71.612933)scale(0.1 -0.1)">
       <use xlink:href="#DejaVuSans-48"/>
       <use x="63.623047" xlink:href="#DejaVuSans-46"/>
       <use x="95.410156" xlink:href="#DejaVuSans-49"/>
      </g>
     </g>
    </g>
    <g id="ytick_33">
     <g id="line2d_78">
      <g>
       <use style="stroke:#000000;stroke-width:0.8;" x="327.24" xlink:href="#mdfa513fd06" y="31.659429"/>
      </g>
     </g>
     <g id="text_25">
      <!-- 0.2 -->
      <g transform="translate(304.336875 35.458647)scale(0.1 -0.1)">
       <use xlink:href="#DejaVuSans-48"/>
       <use x="63.623047" xlink:href="#DejaVuSans-46"/>
       <use x="95.410156" xlink:href="#DejaVuSans-50"/>
      </g>
     </g>
    </g>
    <g id="ytick_34">
     <g id="line2d_79">
      <g>
       <use style="stroke:#000000;stroke-width:0.6;" x="327.24" xlink:href="#m742aace07f" y="96.737143"/>
      </g>
     </g>
    </g>
    <g id="ytick_35">
     <g id="line2d_80">
      <g>
       <use style="stroke:#000000;stroke-width:0.6;" x="327.24" xlink:href="#m742aace07f" y="89.506286"/>
      </g>
     </g>
    </g>
    <g id="ytick_36">
     <g id="line2d_81">
      <g>
       <use style="stroke:#000000;stroke-width:0.6;" x="327.24" xlink:href="#m742aace07f" y="82.275429"/>
      </g>
     </g>
    </g>
    <g id="ytick_37">
     <g id="line2d_82">
      <g>
       <use style="stroke:#000000;stroke-width:0.6;" x="327.24" xlink:href="#m742aace07f" y="75.044571"/>
      </g>
     </g>
    </g>
    <g id="ytick_38">
     <g id="line2d_83">
      <g>
       <use style="stroke:#000000;stroke-width:0.6;" x="327.24" xlink:href="#m742aace07f" y="60.582857"/>
      </g>
     </g>
    </g>
    <g id="ytick_39">
     <g id="line2d_84">
      <g>
       <use style="stroke:#000000;stroke-width:0.6;" x="327.24" xlink:href="#m742aace07f" y="53.352"/>
      </g>
     </g>
    </g>
    <g id="ytick_40">
     <g id="line2d_85">
      <g>
       <use style="stroke:#000000;stroke-width:0.6;" x="327.24" xlink:href="#m742aace07f" y="46.121143"/>
      </g>
     </g>
    </g>
    <g id="ytick_41">
     <g id="line2d_86">
      <g>
       <use style="stroke:#000000;stroke-width:0.6;" x="327.24" xlink:href="#m742aace07f" y="38.890286"/>
      </g>
     </g>
    </g>
    <g id="ytick_42">
     <g id="line2d_87">
      <g>
       <use style="stroke:#000000;stroke-width:0.6;" x="327.24" xlink:href="#m742aace07f" y="24.428571"/>
      </g>
     </g>
    </g>
    <g id="ytick_43">
     <g id="line2d_88">
      <g>
       <use style="stroke:#000000;stroke-width:0.6;" x="327.24" xlink:href="#m742aace07f" y="17.197714"/>
      </g>
     </g>
    </g>
    <g id="ytick_44">
     <g id="line2d_89">
      <g>
       <use style="stroke:#000000;stroke-width:0.6;" x="327.24" xlink:href="#m742aace07f" y="9.966857"/>
      </g>
     </g>
    </g>
    <g id="ytick_45">
     <g id="line2d_90">
      <g>
       <use style="stroke:#000000;stroke-width:0.6;" x="327.24" xlink:href="#m742aace07f" y="2.736"/>
      </g>
     </g>
    </g>
    <g id="text_26">
     <!-- $I_{NaK}$ (A/F) -->
     <g transform="translate(298.257187 75.552)rotate(-90)scale(0.1 -0.1)">
      <use transform="translate(0 0.125)" xlink:href="#DejaVuSans-73"/>
      <use transform="translate(30.449219 -16.28125)scale(0.7)" xlink:href="#DejaVuSans-78"/>
      <use transform="translate(82.8125 -16.28125)scale(0.7)" xlink:href="#DejaVuSans-97"/>
      <use transform="translate(125.708008 -16.28125)scale(0.7)" xlink:href="#DejaVuSans-75"/>
      <use transform="translate(174.345703 0.125)" xlink:href="#DejaVuSans-32"/>
      <use transform="translate(206.132812 0.125)" xlink:href="#DejaVuSans-40"/>
      <use transform="translate(245.146484 0.125)" xlink:href="#DejaVuSans-65"/>
      <use transform="translate(313.554688 0.125)" xlink:href="#DejaVuSans-47"/>
      <use transform="translate(347.246094 0.125)" xlink:href="#DejaVuSans-70"/>
      <use transform="translate(404.765625 0.125)" xlink:href="#DejaVuSans-41"/>
     </g>
    </g>
   </g>
   <g id="line2d_91">
    <path clip-path="url(#p51fdaef2c3)" d="M 327.24 58.702551 
L 328.210909 58.112885 
L 329.181818 57.521262 
L 330.152727 56.927817 
L 331.123636 56.33269 
L 332.094545 55.736021 
L 333.065455 55.13795 
L 334.036364 54.538622 
L 335.007273 53.938179 
L 335.978182 53.336767 
L 336.949091 52.734531 
L 337.92 52.131617 
L 338.890909 51.528172 
L 339.861818 50.924343 
L 340.832727 50.320277 
L 341.803636 49.716122 
L 342.774545 49.112025 
L 343.745455 48.508133 
L 344.716364 47.904594 
L 345.687273 47.301552 
L 346.658182 46.699154 
L 347.629091 46.097544 
L 348.6 45.496867 
L 349.570909 44.897264 
L 350.541818 44.298878 
L 351.512727 43.701849 
L 352.483636 43.106315 
L 353.454545 42.512414 
L 354.425455 41.920281 
L 355.396364 41.330049 
L 356.367273 40.74185 
L 357.338182 40.155813 
L 358.309091 39.572066 
L 359.28 38.990733 
L 360.250909 38.411938 
L 361.221818 37.8358 
L 362.192727 37.262436 
L 363.163636 36.691962 
L 364.134545 36.12449 
L 365.105455 35.560129 
L 366.076364 34.998986 
L 367.047273 34.441163 
L 368.018182 33.886761 
L 368.989091 33.335878 
L 369.96 32.788608 
L 370.930909 32.245041 
L 371.901818 31.705266 
L 372.872727 31.169368 
L 373.843636 30.637427 
L 374.814545 30.109522 
L 375.785455 29.585728 
L 376.756364 29.066116 
L 377.727273 28.550754 
L 378.698182 28.039707 
L 379.669091 27.533037 
L 380.64 27.030802 
L 381.610909 26.533056 
L 382.581818 26.039853 
L 383.552727 25.551238 
L 384.523636 25.067259 
L 385.494545 24.587957 
L 386.465455 24.11337 
L 387.436364 23.643534 
L 388.407273 23.178482 
L 389.378182 22.718243 
L 390.349091 22.262843 
L 391.32 21.812306 
L 392.290909 21.366652 
L 393.261818 20.925899 
L 394.232727 20.490061 
L 395.203636 20.059151 
L 396.174545 19.633177 
L 397.145455 19.212146 
L 398.116364 18.796063 
L 399.087273 18.384929 
L 400.058182 17.978742 
L 401.029091 17.5775 
L 402 17.181197 
L 402.970909 16.789824 
L 403.941818 16.403372 
L 404.912727 16.021829 
L 405.883636 15.645179 
L 406.854545 15.273407 
L 407.825455 14.906495 
L 408.796364 14.544422 
L 409.767273 14.187166 
L 410.738182 13.834704 
L 411.709091 13.487011 
L 412.68 13.14406 
L 413.650909 12.805822 
L 414.621818 12.472267 
L 415.592727 12.143365 
L 416.563636 11.819084 
L 417.534545 11.499388 
L 418.505455 11.184245 
L 419.476364 10.873616 
L 420.447273 10.567466 
L 421.418182 10.265757 
L 422.389091 9.968449 
L 423.36 9.675502 
" style="fill:none;stroke:#1f77b4;stroke-linecap:square;stroke-width:1.5;"/>
   </g>
   <g id="patch_9">
    <path d="M 327.24 103.968 
L 327.24 2.736 
" style="fill:none;stroke:#000000;stroke-linecap:square;stroke-linejoin:miter;stroke-width:0.8;"/>
   </g>
   <g id="patch_10">
    <path d="M 327.24 103.968 
L 423.36 103.968 
" style="fill:none;stroke:#000000;stroke-linecap:square;stroke-linejoin:miter;stroke-width:0.8;"/>
   </g>
  </g>
 </g>
 <defs>
  <clipPath id="p385c8db894">
   <rect height="101.232" width="96.12" x="38.88" y="2.736"/>
  </clipPath>
  <clipPath id="pee8ef62aa2">
   <rect height="101.232" width="96.12" x="183.06" y="2.736"/>
  </clipPath>
  <clipPath id="p51fdaef2c3">
   <rect height="101.232" width="96.12" x="327.24" y="2.736"/>
  </clipPath>
 </defs>
</svg>
